<svg width="3" height="12" viewBox="0 0 3 12" fill="none" xmlns="http://www.w3.org/2000/svg"><g clip-path="url(#a)"><path fill-rule="evenodd" clip-rule="evenodd" d="M0 6.115V0h3v6.115H0zm0 12.231v-6.115h3v6.115H0zm0 12.23v-6.114h3v6.115H0zm0 12.232v-6.116h3v6.116H0zm0 12.23v-6.115h3v6.115H0zM0 67.27v-6.115h3v6.115H0zM0 79.5v-6.115h3V79.5H0zm0 12.23v-6.115h3v6.116H0zm0 12.232v-6.116h3v6.116H0zm0 12.23v-6.115h3v6.115H0zm0 12.231v-6.115h3v6.115H0zm0 12.231v-6.116h3v6.116H0z" fill="#E6BA7B"/></g><defs><clipPath id="a"><path fill="#fff" d="M0 0h3v12H0z"/></clipPath></defs></svg>