<svg width="298" height="96" viewBox="0 0 298 96" fill="none" xmlns="http://www.w3.org/2000/svg"><path d="M136.404 15.328h-4.42v24.786h4.42V15.328zm10.393 24.786V28.486l-.238-7.038h.204l11.288 18.666h5.27V15.328h-4.42v11.458l.272 7.276h-.204l-11.356-18.734h-5.236v24.786h4.42zm20.774-7.718c.034 2.414.918 4.386 2.686 5.848 1.802 1.462 4.284 2.21 7.446 2.21 3.026 0 5.406-.68 7.174-2.04 1.802-1.36 2.686-3.264 2.686-5.678 0-3.978-2.686-6.222-6.664-7.004l-4.25-.85c-.918-.17-1.02-.238-1.938-.544a4.595 4.595 0 0 1-1.02-.544c-.408-.408-.918-1.156-.918-2.074 0-2.006 1.564-3.196 4.386-3.196 2.89 0 4.76 1.292 4.93 3.774h4.59c-.034-2.21-.884-3.978-2.55-5.304s-3.91-2.006-6.766-2.006c-2.788 0-5.032.68-6.732 2.04-1.7 1.326-2.55 3.094-2.55 5.304 0 2.006.884 3.638 1.802 4.488.476.442 1.088.816 1.87 1.19.782.34 1.394.578 1.802.68.408.102.952.238 1.632.374l4.182.884c.816.17 1.224.272 2.074.782.918.442 1.36 1.292 1.36 2.482 0 2.21-1.87 3.672-5.032 3.672-3.536 0-5.474-1.598-5.61-4.488h-4.59zm20.727-17.068v3.944h7.174v20.842h4.454V19.272h7.208v-3.944h-18.836zm39.591 24.786l-9.214-24.786h-5.168l-9.01 24.786h4.624l1.768-4.964h10.404l1.734 4.964h4.862zm-14.552-11.9l2.72-8.262h.204l2.618 8.262 1.19 3.434h-7.956l1.224-3.434zm21.382 11.9V28.486l-.238-7.038h.204l11.288 18.666h5.27V15.328h-4.42v11.458l.272 7.276h-.204l-11.356-18.734h-5.236v24.786h4.42zm19.686-24.786v3.944h7.174v20.842h4.454V19.272h7.208v-3.944h-18.836z" fill="#313131"/><path d="M136.404 79.114v-9.078h6.528c2.686 0 3.57 1.088 3.57 3.502v2.584c0 1.462.136 2.482.374 2.992h4.556c-.238-.612-.374-1.564-.374-2.856V72.79c0-2.652-1.156-4.25-3.468-4.828v-.238c2.414-1.122 3.876-3.332 3.876-6.154 0-4.488-2.754-7.242-7.82-7.242h-11.662v24.786h4.42zm0-20.91h6.052c2.856 0 4.284 1.292 4.284 3.876 0 2.482-1.734 4.08-4.624 4.08h-5.712v-7.956zm37.252 20.91v-3.91h-12.648v-7.072h10.948V64.46h-10.948v-6.222h12.648v-3.91h-17.068v24.786h17.068zm16.645 0c2.414 0 4.352-.612 5.78-1.836 1.462-1.258 2.176-2.89 2.176-4.964 0-2.856-1.428-5.032-4.182-5.848v-.306c2.21-.85 3.536-2.924 3.536-5.542 0-3.774-2.822-6.29-7.31-6.29h-11.866v24.786h11.866zm-7.514-21.318h6.426c2.312 0 3.808 1.292 3.808 3.434 0 2.176-1.462 3.502-3.808 3.502h-6.426v-6.936zm0 10.37h6.562c2.482 0 4.216 1.156 4.216 3.706 0 2.414-1.632 3.74-4.216 3.74h-6.562v-7.446zm39.69 10.948l-9.214-24.786h-5.168l-9.01 24.786h4.624l1.768-4.964h10.404l1.734 4.964h4.862zm-14.552-11.9l2.72-8.262h.204l2.618 8.262 1.19 3.434h-7.956l1.224-3.434zm11.949-12.886v3.944h7.174v20.842h4.454V58.272h7.208v-3.944h-18.836zm38.582 24.786v-3.91h-12.648v-7.072h10.948V64.46h-10.948v-6.222h12.648v-3.91h-17.068v24.786h17.068zM83.674 57.458c.193.157.324.246.436.356 2.274 2.226 4.545 4.455 6.823 6.677.15.146.124.264.059.426-5.546 13.755-15.087 23.27-28.998 28.138-3.063 1.072-6.217 1.753-9.437 2.131-3.171.373-6.347.42-9.521.108C22.973 93.32 6.94 79.148 2 59.97.89 55.663.5 51.293.574 46.857.748 36.34 4.14 26.965 10.478 18.723 17.29 9.864 26.176 4.2 36.98 1.674 41.246.678 45.575.3 49.937.601c12.88.887 23.668 6.204 32.315 15.942 3.563 4.012 6.286 8.574 8.344 13.55.127.308.27.61.403.915.075.173.184.24.378.182.813-.245 1.63-.475 2.443-.721.753-.228 1.5-.472 2.251-.7.126-.038.267-.026.494-.046-1.356 7.274-2.517 14.526-4.058 21.745-5.542-4.7-10.9-9.554-16.223-14.572.313-.147.542-.274.784-.365 1.364-.513 2.734-1.008 4.096-1.526.943-.36 1.075-.696.675-1.629-3.564-8.307-9.314-14.59-17.115-18.94-3.595-2.006-7.447-3.316-11.495-3.983-2.04-.336-4.112-.337-6.175-.321-1.467.01-2.938.025-4.4.144-2.201.18-4.327.771-6.425 1.449-5.631 1.82-10.637 4.745-14.89 8.915-5.305 5.202-8.888 11.435-10.54 18.763-.83 3.677-1.036 7.408-.812 11.167.266 4.459 1.251 8.746 3.042 12.828 2.816 6.414 7.11 11.604 12.741 15.66a36.351 36.351 0 0 0 13.864 6.136c3.457.731 6.946.93 10.47.67 13.378-.986 25.72-9.706 31.213-22.122.681-1.54 1.176-3.164 1.762-4.747.182-.493.378-.98.595-1.537z" fill="#FF6067"/><path d="M49.944 72h-5.386v-5.522c-.785-.104-1.541-.196-2.295-.304-2.092-.3-4.135-.801-6.089-1.647-.328-.142-.636-.34-.943-.53-.195-.12-.271-.297-.21-.552.396-1.677.778-3.359 1.171-5.037.098-.418.218-.831.34-1.296.27.11.517.195.752.306 1.238.588 2.497 1.107 3.818 1.462 1.877.506 3.779.766 5.718.622 1.013-.075 1.988-.302 2.9-.812 1.778-.993 1.778-2.82 1.319-4.108-.235-.658-.695-1.143-1.22-1.556-1.068-.837-2.288-1.368-3.53-1.841-1.87-.713-3.726-1.456-5.49-2.428-1.494-.824-2.827-1.873-3.838-3.293-1.895-2.661-2.186-5.587-1.223-8.698.688-2.22 2.165-3.765 3.95-5.044 1.418-1.015 3.004-1.629 4.66-2.072.469-.126.407-.008.408-.559.003-1.573.001-3.146.001-4.72V24h5.605v5.12c.408.04.8.07 1.188.116 2.117.25 4.195.67 6.17 1.532.762.332.76.345.55 1.174-.36 1.434-.709 2.872-1.094 4.298-.33 1.225-.608 1.37-1.751.937-1.314-.497-2.636-.958-4.022-1.183-1.653-.268-3.31-.354-4.947.096-.433.119-.863.3-1.254.527-1.282.745-1.679 2.424-.903 3.723.562.939 1.41 1.54 2.344 1.979 1.632.768 3.295 1.46 4.94 2.2 1.462.658 2.942 1.283 4.26 2.24 1.634 1.186 2.965 2.648 3.593 4.652 1.31 4.182.438 9.128-3.681 12.183-1.565 1.16-3.321 1.84-5.176 2.283-.636.152-.635.16-.635.84V72z" fill="#313131"/></svg>