<svg width="238" height="31" viewBox="0 0 238 31" fill="none" xmlns="http://www.w3.org/2000/svg"><path d="M8.813 13.906c0 1.156-.396 2.047-1.188 2.672-.786.62-1.914.93-3.383.93H2.898V22H1.57V10.578h2.961c2.854 0 4.282 1.11 4.282 3.328zm-5.915 2.461h1.196c1.177 0 2.028-.19 2.554-.57.526-.38.79-.99.79-1.828 0-.755-.248-1.318-.743-1.688-.494-.37-1.265-.554-2.312-.554H2.898v4.64zm15.508 1.344c0 1.396-.351 2.487-1.054 3.273-.704.782-1.675 1.172-2.915 1.172-.765 0-1.445-.18-2.039-.539-.593-.36-1.052-.875-1.375-1.547-.322-.672-.484-1.458-.484-2.36 0-1.395.349-2.48 1.047-3.257.698-.781 1.667-1.172 2.906-1.172 1.198 0 2.149.399 2.852 1.196.708.796 1.062 1.875 1.062 3.234zm-6.523 0c0 1.094.219 1.927.656 2.5.438.573 1.08.86 1.93.86.849 0 1.492-.285 1.93-.852.442-.573.663-1.41.663-2.508 0-1.089-.22-1.914-.664-2.477-.437-.567-1.085-.851-1.945-.851-.849 0-1.49.279-1.922.836-.432.557-.648 1.388-.648 2.492zM27.352 22l-1.57-5.023c-.1-.308-.285-1.006-.555-2.094h-.063c-.208.911-.39 1.614-.547 2.11L23 22h-1.5l-2.336-8.563h1.36c.552 2.152.97 3.79 1.257 4.915.292 1.125.459 1.882.5 2.273h.063a20.858 20.858 0 0 1 .61-2.273l1.57-4.915h1.406l1.53 4.915c.293.895.49 1.648.595 2.257h.062c.021-.187.076-.476.164-.867.094-.39.638-2.492 1.633-6.305h1.344L28.89 22h-1.54zm9.078.156c-1.266 0-2.266-.385-3-1.156-.73-.77-1.094-1.841-1.094-3.21 0-1.381.339-2.477 1.016-3.29.682-.813 1.596-1.219 2.742-1.219 1.073 0 1.922.354 2.547 1.063.625.703.937 1.633.937 2.789v.82H33.68c.026 1.005.278 1.768.758 2.29.484.52 1.164.78 2.039.78.921 0 1.833-.192 2.734-.578v1.157a6.627 6.627 0 0 1-1.305.421 7.04 7.04 0 0 1-1.476.133zm-.352-7.789c-.687 0-1.237.224-1.648.672-.407.448-.646 1.068-.72 1.86h4.477c0-.818-.182-1.443-.546-1.876-.365-.437-.886-.656-1.563-.656zm9.625-1.086c.38 0 .721.031 1.024.094l-.18 1.203a4.42 4.42 0 0 0-.938-.117c-.692 0-1.286.281-1.78.844-.49.562-.735 1.263-.735 2.101V22h-1.297v-8.563h1.07l.149 1.586h.062c.318-.557.7-.986 1.149-1.289.448-.302.94-.453 1.476-.453zm5.914 8.875c-1.265 0-2.265-.385-3-1.156-.729-.77-1.094-1.841-1.094-3.21 0-1.381.339-2.477 1.016-3.29.682-.813 1.596-1.219 2.742-1.219 1.073 0 1.922.354 2.547 1.063.625.703.938 1.633.938 2.789v.82h-5.899c.026 1.005.279 1.768.758 2.29.484.52 1.164.78 2.04.78.92 0 1.832-.192 2.733-.578v1.157a6.628 6.628 0 0 1-1.304.421 7.041 7.041 0 0 1-1.477.133zm-.351-7.789c-.688 0-1.237.224-1.649.672-.406.448-.646 1.068-.719 1.86h4.477c0-.818-.182-1.443-.547-1.876-.364-.437-.885-.656-1.562-.656zm11.547 6.485h-.07c-.6.87-1.496 1.304-2.688 1.304-1.12 0-1.992-.383-2.617-1.148-.62-.766-.93-1.854-.93-3.266 0-1.411.312-2.508.937-3.289.625-.781 1.495-1.172 2.61-1.172 1.161 0 2.052.422 2.672 1.266h.101l-.055-.617-.03-.602V9.844h1.296V22h-1.055l-.172-1.148zm-2.594.218c.885 0 1.526-.24 1.922-.718.4-.485.601-1.264.601-2.336v-.274c0-1.213-.203-2.078-.61-2.594-.4-.52-1.043-.78-1.929-.78-.76 0-1.344.296-1.75.89-.4.588-.601 1.422-.601 2.5 0 1.094.2 1.92.601 2.476.401.558.99.836 1.766.836zm14.718-7.773c1.126 0 1.998.385 2.618 1.156.625.766.937 1.852.937 3.258s-.315 2.5-.945 3.281c-.625.776-1.495 1.164-2.61 1.164a3.775 3.775 0 0 1-1.53-.304 2.91 2.91 0 0 1-1.157-.954h-.094L71.883 22h-.93V9.844h1.297v2.953c0 .661-.02 1.255-.063 1.781h.063c.604-.854 1.5-1.281 2.688-1.281zm-.187 1.086c-.885 0-1.523.255-1.914.765-.39.506-.586 1.36-.586 2.563s.2 2.065.602 2.586c.4.515 1.044.773 1.93.773.796 0 1.39-.289 1.78-.867.391-.583.586-1.42.586-2.508 0-1.114-.195-1.945-.585-2.492-.391-.547-.995-.82-1.813-.82zm4.328-.945h1.39l1.876 4.882c.411 1.115.666 1.92.765 2.414h.063c.068-.265.208-.718.422-1.359.219-.646.927-2.625 2.125-5.938h1.39l-3.68 9.75c-.364.964-.791 1.646-1.28 2.047-.485.407-1.081.61-1.79.61-.395 0-.786-.045-1.171-.133v-1.04c.286.063.606.095.96.095.891 0 1.526-.5 1.907-1.5l.476-1.22-3.453-8.608z" fill="#333"/><path fill-rule="evenodd" clip-rule="evenodd" d="M120.984 16c0 5.504-4.423 9.966-9.879 9.966a9.783 9.783 0 0 1-5.928-1.992.202.202 0 0 0-.122-.042h-2.43a.197.197 0 0 0-.145.333A11.815 11.815 0 0 0 111.105 28C117.674 28 123 22.627 123 16s-5.326-12-11.895-12c-3.079 0-5.885 1.18-7.998 3.117a.196.196 0 0 0 .135.34h2.715c.037 0 .073-.01.105-.028a9.765 9.765 0 0 1 5.043-1.395c5.456 0 9.879 4.462 9.879 9.966zm-4.716 2.605l.104 1.847c.011.592.137 1.075.378 1.446h-2.391c-.207-.348-.316-.842-.327-1.48l-.052-1.36c-.034-.755-.206-1.278-.516-1.568-.298-.302-.78-.453-1.445-.453h-3.027v4.861h-2.323V9.492h5.557c1.364 0 2.425.313 3.182.94.757.628 1.136 1.482 1.136 2.562 0 1.487-.683 2.474-2.048 2.962.62.198 1.061.511 1.325.941.275.419.424.988.447 1.708zm-7.276-7.18v3.765h3.096c.654 0 1.158-.163 1.514-.488.367-.337.55-.82.55-1.447 0-.592-.189-1.045-.567-1.359-.367-.313-.895-.47-1.583-.47h-3.01zm-4.944-1.933c.223 0 .404.182.404.406v1.295a.405.405 0 0 1-.404.407h-5.645a.405.405 0 0 1-.403-.407V9.898c0-.224.18-.406.403-.406h5.645zm.404 5.818a.405.405 0 0 0-.404-.407h-5.645a.405.405 0 0 0-.403.407v1.208c0 .225.18.407.403.407h5.645a.405.405 0 0 0 .404-.407V15.31zm0 4.887a.405.405 0 0 0-.404-.407h-5.645a.405.405 0 0 0-.403.407v1.294c0 .225.18.407.403.407h5.645a.405.405 0 0 0 .404-.407v-1.294zM129.741 22h7.061v-1.317h-5.588v-4.66h5.25v-1.3h-5.25v-4.08h5.588V9.335h-7.061V22zm9.66 0h1.438V8.52h-1.438V22zm4.487 0h1.438v-9.495h-1.438V22zm.121-12.787c-.161.15-.242.39-.242.72 0 .323.081.565.242.727a.84.84 0 0 0 .607.234c.231 0 .43-.078.597-.234.168-.162.252-.404.252-.728 0-.323-.084-.563-.252-.719a.845.845 0 0 0-.597-.234.84.84 0 0 0-.607.234zm8.17 11.721a5.087 5.087 0 0 1-.737.052c-.473 0-.846-.153-1.117-.459-.272-.306-.407-.745-.407-1.317v-5.587h2.754v-1.118h-2.754v-2.2h-.832l-.607 2.027-1.36.598v.693h1.36v5.648c0 1.935.919 2.902 2.755 2.902.243 0 .514-.026.815-.078.306-.046.537-.107.693-.182v-1.1c-.139.04-.327.081-.563.121zm3.153-.043c.814.855 1.923 1.282 3.327 1.282.641 0 1.186-.049 1.637-.147a7.38 7.38 0 0 0 1.447-.468v-1.282c-1 .427-2.01.641-3.032.641-.971 0-1.724-.289-2.262-.866-.531-.578-.811-1.424-.84-2.538h6.541v-.91c0-1.282-.347-2.313-1.04-3.093-.693-.785-1.634-1.178-2.824-1.178-1.271 0-2.284.45-3.041 1.351-.75.901-1.126 2.117-1.126 3.648 0 1.518.404 2.705 1.213 3.56zm1.109-6.61c.456-.497 1.065-.745 1.828-.745.751 0 1.328.243 1.732.728.405.48.607 1.172.607 2.079h-4.964c.081-.878.346-1.565.797-2.062zM170.908 22v-5.267h2.642L176.617 22h1.741l-3.439-5.692c1.698-.589 2.547-1.72 2.547-3.396 0-1.195-.372-2.09-1.117-2.685-.74-.595-1.886-.892-3.44-.892h-3.474V22h1.473zm2.019-6.532h-2.019v-4.843h1.915c1.091 0 1.882.185 2.373.555.497.37.745.973.745 1.81 0 .826-.242 1.447-.727 1.863-.485.41-1.248.615-2.287.615zm7.944 5.423c.814.855 1.923 1.282 3.326 1.282.641 0 1.187-.049 1.638-.147a7.35 7.35 0 0 0 1.446-.468v-1.282a7.649 7.649 0 0 1-3.032.641c-.97 0-1.724-.289-2.261-.866-.531-.578-.811-1.424-.84-2.538h6.54v-.91c0-1.282-.346-2.313-1.039-3.093-.693-.785-1.635-1.178-2.824-1.178-1.271 0-2.284.45-3.041 1.351-.751.901-1.126 2.117-1.126 3.648 0 1.518.404 2.705 1.213 3.56zm1.108-6.61c.457-.497 1.066-.745 1.828-.745.751 0 1.329.243 1.733.728.404.48.606 1.172.606 2.079h-4.964c.081-.878.347-1.565.797-2.062zm13.818 2.149l1.741 5.57h1.707l2.625-9.495h-1.49a931.132 931.132 0 0 0-1.811 6.991 9.716 9.716 0 0 0-.182.962h-.069c-.115-.676-.335-1.51-.658-2.504l-1.698-5.449h-1.56l-1.741 5.45c-.104.305-.228.721-.372 1.247-.139.52-.24.944-.304 1.273h-.069c-.046-.433-.231-1.273-.554-2.52-.318-1.248-.783-3.064-1.395-5.45h-1.508L191.05 22h1.663l1.793-5.553c.174-.549.376-1.328.607-2.339h.069c.3 1.207.505 1.98.615 2.322zm13.35 4.219l.286 1.351h1.065v-6.48c0-1.109-.274-1.915-.823-2.417-.543-.502-1.38-.754-2.512-.754-.56 0-1.12.072-1.681.217a6.786 6.786 0 0 0-1.533.598l.442 1.1c.999-.485 1.894-.728 2.685-.728.705 0 1.216.18 1.534.537.323.353.485.901.485 1.646v.59l-1.611.051c-3.067.093-4.601 1.098-4.601 3.015 0 .895.266 1.585.797 2.07.538.486 1.277.728 2.218.728.705 0 1.291-.104 1.759-.312.473-.213.947-.618 1.421-1.212h.069zm-.858-.399c-.508.491-1.21.736-2.105.736-.566 0-1.008-.135-1.325-.407-.312-.271-.468-.667-.468-1.187 0-.664.251-1.152.754-1.464.508-.317 1.334-.496 2.477-.537l1.438-.06v.857c0 .884-.257 1.571-.771 2.062zm10.647-7.814a5.626 5.626 0 0 0-1.135-.104c-.595 0-1.14.167-1.637.502-.497.335-.921.812-1.274 1.43h-.069l-.164-1.759h-1.187V22h1.438v-5.094c0-.93.271-1.706.814-2.33.549-.624 1.207-.936 1.975-.936a4.9 4.9 0 0 1 1.04.13l.199-1.334zm7.797 8.29h.078l.19 1.274h1.17V8.52h-1.438v3.864l.034.667.061.684h-.113c-.687-.935-1.674-1.403-2.962-1.403-1.236 0-2.201.433-2.894 1.3-.693.866-1.039 2.082-1.039 3.647s.343 2.772 1.031 3.62c.693.85 1.66 1.274 2.902 1.274 1.322 0 2.316-.482 2.98-1.446zm-.667-.554c-.439.531-1.15.797-2.131.797-.861 0-1.513-.309-1.958-.927-.445-.618-.667-1.533-.667-2.746 0-1.195.222-2.12.667-2.772.45-.659 1.097-.988 1.94-.988.982 0 1.695.289 2.14.867.451.571.676 1.53.676 2.876v.303c0 1.19-.223 2.053-.667 2.59zm10.3 1.282c.659-.48.988-1.16.988-2.044 0-.63-.2-1.152-.598-1.568-.393-.416-1.152-.829-2.278-1.24-.82-.305-1.375-.54-1.664-.7-.288-.162-.499-.333-.632-.512a1.094 1.094 0 0 1-.191-.65c0-.375.174-.67.52-.883.347-.214.861-.32 1.542-.32.774 0 1.637.196 2.59.588l.511-1.17a7.576 7.576 0 0 0-2.997-.623c-1.097 0-1.961.225-2.59.676-.63.445-.944 1.054-.944 1.828 0 .433.089.805.268 1.117.185.312.462.592.832.84.375.243 1.005.529 1.888.858.93.358 1.554.67 1.872.936.323.26.485.574.485.944 0 .49-.202.858-.607 1.1-.404.237-.982.355-1.732.355-.486 0-.991-.066-1.516-.199a7.141 7.141 0 0 1-1.464-.546v1.335c.704.398 1.686.597 2.945.597 1.19 0 2.114-.24 2.772-.719z" fill="url(#a)"/><defs><linearGradient id="a" x1="98" y1="16.632" x2="232.255" y2="16.632" gradientUnits="userSpaceOnUse"><stop offset=".084" stop-color="#2075DF"/><stop offset="1" stop-color="#23B2DC"/></linearGradient></defs></svg>