<svg width="717" height="662" viewBox="0 0 717 662" fill="none" xmlns="http://www.w3.org/2000/svg"><g clip-path="url(#a)"><path d="M239.509 14.875l-4.235 2.444a.067.067 0 0 1-.036.018l-.01.01c-1.919 1.12-3.095 3.5-3.095 6.88v252.959c0 6.788 4.776 15.065 10.665 18.464l353.764 204.228c2.912 1.681 5.549 1.846 7.487.772v.009l.064-.037v-.009l4.235-2.443v-.01c1.947-1.102 3.15-3.49 3.15-6.907v-252.96c-.009-6.788-4.785-15.065-10.674-18.463L247.078 15.61c-2.893-1.671-5.511-1.846-7.431-.799l-.009-.009-.092.055a.07.07 0 0 0-.037.018z" fill="#F00"/><path opacity=".2" d="M573.665 254.23c-3.271-1.893-5.935-.359-5.935 3.417l.01 111.461c0 3.775 2.645 8.377 5.925 10.269l33.574 19.383V273.621l-33.574-19.391z" fill="#000"/><path opacity=".3" d="M600.835 219.848L247.079 15.61c-2.894-1.671-5.512-1.846-7.431-.799l-.01-.009-.091.055c-.01 0-.028.01-.037.018l-4.207 2.435c1.929-1.084 4.574-.919 7.505.771l353.764 204.247c5.898 3.408 10.674 11.675 10.665 18.464v252.959c0 3.39-1.194 5.769-3.114 6.89l4.226-2.444v-.009c1.947-1.102 3.15-3.491 3.15-6.908V238.321c0-6.798-4.776-15.065-10.664-18.473z" fill="#000"/><path opacity=".2" d="M596.564 490.5L242.809 286.262c-3.38-1.957-6.393-1.874-8.35-.165 1.957 3.986 4.951 7.587 8.35 9.553l353.755 204.228c3.39 1.957 6.403 1.874 8.35.166-1.947-3.978-4.942-7.579-8.35-9.544z" fill="#000"/><path d="M601.323 502.477c-1.662 0-3.472-.542-5.327-1.607L242.24 296.632c-6.2-3.582-11.243-12.309-11.234-19.456V24.226c0-3.674 1.286-6.457 3.628-7.844.019-.019.046-.028.065-.037.009 0 .009-.01.018-.01l4.225-2.434c.01-.009.019-.009.028-.018l.092-.055c.073-.046.156-.083.239-.11 2.333-1.176 5.291-.854 8.359.918l353.755 204.238c6.192 3.573 11.235 12.3 11.244 19.446v252.96c-.009 3.693-1.305 6.476-3.656 7.854-.028.018-.046.027-.074.046l-4.161 2.406-.138.083c-.036.018-.073.037-.119.055a6.967 6.967 0 0 1-3.188.753zM235.856 18.302c-.009.009-.028.018-.037.027-1.635.955-2.535 3.05-2.535 5.897v252.96c0 6.421 4.519 14.265 10.095 17.48l353.756 204.238c2.443 1.415 4.703 1.681 6.356.762.037-.018.083-.036.12-.055l4.097-2.37c.027-.018.046-.036.073-.046 1.654-.946 2.572-3.04 2.572-5.915V238.32c-.009-6.42-4.538-14.256-10.104-17.471L246.512 16.602c-2.435-1.405-4.667-1.68-6.311-.79a.918.918 0 0 1-.138.064l-4.207 2.426z" fill="#E40303"/><path d="M596.562 475.269L242.807 271.022c-2.352-1.359-4.272-4.666-4.272-7.385V27.919c0-2.719 1.92-3.821 4.272-2.462l353.755 204.238c2.352 1.36 4.272 4.676 4.272 7.395v235.726c0 2.701-1.92 3.813-4.272 2.453z" fill="#fff"/><path d="M573.665 254.23c-3.271-1.893-5.935-.359-5.935 3.417l.01 111.461c0 3.775 2.645 8.377 5.925 10.269l27.162 15.681V269.919l-27.162-15.689z" fill="#FF6A6A"/><path d="M255.604 313.278l2.14 1.222 6.807-3.932v-7.385l-8.947 5.162c-2.352 1.36-2.352 3.564 0 4.933z" fill="#B30000"/><path opacity=".2" d="M255.604 313.278l2.14 1.222 6.807-3.932v-7.385l-8.947 5.162c-2.352 1.36-2.352 3.564 0 4.933z" fill="#000"/><path d="M262.218 322.059c.735.413 1.755.349 2.875-.294l15.993-9.241v-9.452l-5.741-3.316-16.011 9.241c-2.26 1.304-4.088 4.473-4.088 7.082 0 1.24.423 2.113 1.102 2.563l-.009.018 5.879 3.399z" fill="#7185A3"/><path d="M262.218 322.059c.735.413 1.755.349 2.875-.294l15.993-9.241v-9.452l-5.741-3.316-16.011 9.241c-2.26 1.304-4.088 4.473-4.088 7.082 0 1.24.423 2.113 1.102 2.563l-.009.018 5.879 3.399z" fill="#B7DAFE"/><path opacity=".5" d="M281.086 303.073l-16.002 9.241c-2.26 1.314-4.097 4.474-4.088 7.082 0 2.609 1.837 3.666 4.097 2.361l15.993-9.232v-9.452z" fill="#000"/><path d="M546.907 481.441l2.131 1.24 6.807-3.931v-7.386l-8.956 5.163c-2.352 1.35-2.343 3.564.018 4.914z" fill="#B30000"/><path opacity=".2" d="M546.907 481.441l2.131 1.24 6.807-3.931v-7.386l-8.956 5.163c-2.352 1.35-2.343 3.564.018 4.914z" fill="#000"/><path d="M553.503 490.195c.735.413 1.746.349 2.875-.294l15.993-9.241v-9.443l-5.741-3.325-16.011 9.241c-2.251 1.304-4.088 4.473-4.088 7.082 0 1.249.432 2.122 1.103 2.572l-.01.018 5.879 3.39z" fill="#7185A3"/><path d="M553.503 490.195c.735.413 1.746.349 2.875-.294l15.993-9.241v-9.443l-5.741-3.325-16.011 9.241c-2.251 1.304-4.088 4.473-4.088 7.082 0 1.249.432 2.122 1.103 2.572l-.01.018 5.879 3.39z" fill="#fff"/><path d="M572.38 471.217l-16.011 9.241c-2.251 1.304-4.088 4.473-4.088 7.082s1.837 3.665 4.097 2.361l15.993-9.241.009-9.443z" fill="#FF6A6A"/><path d="M597.659 498.409c0-.036 0-.073-.009-.11a7.208 7.208 0 0 0-.184-.744l-.027-.083a5.599 5.599 0 0 0-.313-.734 8.208 8.208 0 0 0-.027-.083 8.494 8.494 0 0 0-.404-.661c-.028-.046-.046-.092-.083-.138a8.268 8.268 0 0 0-.514-.643c-.037-.046-.065-.092-.111-.129-.689-.762-1.589-1.47-2.691-2.103l-25.013-14.441-8.938 5.163c-2.361 1.359-6.182 1.359-8.534-.009l-1.772-1.02-2.132-1.24c-2.36-1.36-2.369-3.564-.018-4.924l2.554-1.469 6.402-3.693L277 310.366l-8.947 5.163c-2.351 1.359-6.173 1.359-8.533-.009l-1.773-1.029-2.141-1.222c-2.36-1.369-2.36-3.564 0-4.933l2.545-1.47 6.402-3.692-25.013-14.44c-5.897-3.399-15.441-3.399-21.32 0L5.55 411.521a14.97 14.97 0 0 0-1.029.652c-2.232 1.58-3.362 3.509-3.38 5.438v7.303h.027c-.055 2.268 1.387 4.556 4.4 6.283l353.746 204.247c5.898 3.398 15.451 3.398 21.33 0l212.67-122.76c2.912-1.681 4.373-3.885 4.4-6.09h.01v-.064V499.126c0-.239-.028-.478-.065-.717z" fill="#F00"/><path opacity=".3" d="M597.667 498.563c.285 2.416-1.167 4.887-4.363 6.733L380.643 628.074c-5.879 3.399-15.433 3.399-21.33-.009L5.567 423.827c-2.949-1.699-4.419-3.931-4.419-6.154v7.247h.028c-.055 2.269 1.387 4.557 4.4 6.284l353.746 204.247c5.898 3.398 15.451 3.398 21.33 0l212.661-122.769c2.912-1.681 4.372-3.886 4.4-6.09h.009v-.065V499.124c0-.184-.027-.377-.055-.561z" fill="#000"/><path d="M369.987 639.136c-4.069 0-8.139-.891-11.243-2.682L4.997 432.207c-3.178-1.828-4.933-4.327-4.97-7.055a.91.91 0 0 1-.027-.221v-7.247c0-.037 0-.074.01-.11.036-2.343 1.405-4.593 3.857-6.329.35-.248.726-.487 1.12-.717L217.65 287.75c6.182-3.573 16.259-3.573 22.469 0l25.013 14.44c.349.202.569.579.569.992 0 .405-.22.781-.569.993l-8.947 5.162c-.763.441-1.194.974-1.194 1.47s.44 1.038 1.194 1.479l3.904 2.25c2.002 1.167 5.392 1.167 7.394.009l8.947-5.162c.349-.202.79-.202 1.139 0l278.845 160.991c.35.202.57.578.57.992 0 .404-.22.781-.57.992l-8.956 5.162c-.753.432-1.185.974-1.185 1.47s.441 1.038 1.204 1.479l2.039 1.185c.037.018.064.028.092.046l1.773 1.02c1.993 1.166 5.383 1.166 7.394.009l8.938-5.163c.349-.202.79-.202 1.139 0l25.013 14.44c1.185.68 2.177 1.47 2.958 2.324.046.046.092.111.147.175.184.211.395.459.569.707.056.083.083.138.12.193.147.221.312.478.45.735.018.037.046.101.064.147.138.285.257.56.349.827.01.027.028.092.037.119.092.276.165.57.221.864.009.036.018.128.018.174.037.23.073.524.073.845v7.404a1.4 1.4 0 0 1-.018.193c-.083 2.682-1.846 5.144-4.97 6.944l-212.67 122.797c-3.096 1.791-7.156 2.682-11.225 2.682zM2.287 424.702c.019.082.028.165.028.257-.046 1.947 1.304 3.821 3.83 5.273l353.747 204.247c5.576 3.215 14.624 3.215 20.19 0l212.661-122.778c2.444-1.406 3.803-3.224 3.831-5.117 0-.055.009-.11.009-.165v-7.275c0-.202-.018-.377-.046-.561v-.027c0-.028-.009-.101-.009-.12-.028-.119-.074-.321-.138-.523a.403.403 0 0 1-.027-.11 6.42 6.42 0 0 0-.239-.552.364.364 0 0 1-.046-.11c-.092-.165-.202-.33-.312-.496a.598.598 0 0 1-.065-.11 4.817 4.817 0 0 0-.441-.551c-.018-.019-.055-.074-.073-.092-.643-.707-1.461-1.341-2.434-1.911l-24.435-14.109-8.368 4.832c-2.728 1.57-6.981 1.57-9.682-.01l-1.681-.964c-.037-.018-.064-.037-.101-.055l-2.131-1.24c-1.488-.855-2.342-2.113-2.342-3.454 0-1.332.845-2.591 2.333-3.445l7.238-4.179-276.585-159.668-8.378 4.831c-2.71 1.571-6.963 1.562-9.672-.009l-3.904-2.25c-1.507-.873-2.343-2.104-2.343-3.454 0-1.351.827-2.582 2.333-3.445l7.239-4.18-23.295-13.457c-5.576-3.215-14.624-3.215-20.182 0L6.117 412.503c-.33.193-.642.386-.936.597-1.856 1.314-2.885 2.912-2.903 4.52v7.082h.01z" fill="#E40303"/><path opacity=".3" d="M453.937 567.632c-3.536 2.039-9.259 2.039-12.796 0L110.249 376.585c-3.536-2.039-3.536-5.355-.009-7.385l106.565-61.527c3.536-2.039 9.268-2.039 12.796.009L560.493 498.72c3.527 2.039 3.545 5.346.009 7.385l-106.565 61.527z" fill="#000"/><path d="M145.092 384.219c-2.361 1.359-6.173 1.359-8.534 0l-15.652-9.039c-2.352-1.36-2.361-3.574 0-4.924l11.363-6.568c2.351-1.359 6.173-1.359 8.533.009l15.653 9.03c2.352 1.36 2.361 3.564 0 4.924l-11.363 6.568zm59.708-6.55c2.361-1.35 2.352-3.564 0-4.924l-39.83-22.992c-2.361-1.368-6.182-1.359-8.533 0l-11.363 6.559c-2.352 1.359-2.352 3.564 0 4.924l39.829 23.001c2.361 1.359 6.183 1.359 8.534 0l11.363-6.568zm-24.159 13.953c2.352-1.359 2.352-3.573 0-4.923l-11.381-6.568c-2.352-1.36-6.173-1.369-8.534 0l-11.372 6.558c-2.351 1.36-2.351 3.565.01 4.924l11.39 6.577c2.352 1.36 6.173 1.369 8.534 0l11.353-6.568zm24.187 13.963c2.351-1.36 2.351-3.564 0-4.924l-11.382-6.568c-2.36-1.359-6.173-1.368-8.533 0l-11.372 6.559c-2.352 1.359-2.343 3.564 0 4.924l11.381 6.567c2.351 1.36 6.173 1.369 8.534 0l11.372-6.558zm24.195 13.962c2.352-1.359 2.352-3.564-.009-4.923l-11.381-6.577c-2.361-1.36-6.173-1.36-8.534 0l-11.363 6.558c-2.351 1.36-2.351 3.564 0 4.924l11.381 6.577c2.352 1.359 6.173 1.369 8.525.009l11.381-6.568zm161.588 93.291c2.352-1.359 2.352-3.564 0-4.923L362.75 491.83c-2.36-1.368-6.173-1.368-8.524-.009l-11.372 6.559c-2.352 1.359-2.352 3.564 0 4.924l27.86 16.084c2.352 1.359 6.173 1.359 8.525 0l11.372-6.55zm48.336.019c2.351-1.36 2.351-3.564 0-4.924l-27.861-16.084c-2.361-1.36-6.173-1.36-8.533 0l-11.372 6.568c-2.352 1.359-2.352 3.564 0 4.923l27.86 16.085c2.352 1.359 6.173 1.359 8.534 0l11.372-6.568zm-89.002-23.488c2.352-1.369 2.352-3.564-.009-4.924l-11.372-6.568c-2.361-1.368-6.182-1.359-8.534 0l-11.372 6.568c-2.351 1.36-2.351 3.564 0 4.924l11.372 6.568c2.361 1.359 6.183 1.359 8.534.009l11.381-6.577zm-24.186-13.972c2.361-1.35 2.352-3.555 0-4.914l-83.94-48.465c-2.352-1.359-6.173-1.359-8.534-.009l-11.363 6.568c-2.351 1.35-2.351 3.564.01 4.923l83.94 48.456c2.36 1.359 6.182 1.359 8.533.009l11.354-6.568zm-66.147-138.274c2.361-1.36 2.351-3.564 0-4.915l-32.132-18.555c-2.361-1.36-6.173-1.369-8.534 0l-1.414.817c-2.361 1.36-2.352 3.565.009 4.924l32.123 18.555c2.351 1.36 6.172 1.369 8.524 0l1.424-.826zm24.186 13.971c2.361-1.359 2.352-3.564 0-4.923l-11.381-6.577c-2.352-1.36-6.173-1.36-8.525 0l-1.423.817c-2.352 1.369-2.343 3.574.009 4.924l11.381 6.577c2.352 1.359 6.173 1.369 8.534 0l1.405-.818zm24.186 13.963c2.352-1.36 2.352-3.564 0-4.924l-11.381-6.568c-2.351-1.368-6.173-1.368-8.524-.009l-1.424.818c-2.352 1.359-2.342 3.564.009 4.923l11.381 6.577c2.352 1.36 6.173 1.369 8.534.01l1.405-.827zm24.187 13.962c2.36-1.359 2.351-3.564 0-4.923l-11.372-6.568c-2.37-1.369-6.182-1.36-8.534 0l-1.424.817c-2.361 1.36-2.351 3.564.009 4.924l11.382 6.577c2.351 1.36 6.173 1.36 8.524 0l1.415-.827zm24.186 13.972c2.352-1.369 2.352-3.573 0-4.933l-11.381-6.577c-2.352-1.359-6.164-1.359-8.534 0l-1.424.818c-2.351 1.359-2.351 3.564 0 4.923l11.382 6.568c2.351 1.36 6.172 1.369 8.533.009l1.424-.808zm24.186 13.953c2.352-1.359 2.352-3.564 0-4.923l-11.381-6.568c-2.351-1.369-6.173-1.36-8.534 0l-1.414.826c-2.352 1.36-2.352 3.565 0 4.924l11.381 6.568c2.361 1.359 6.173 1.359 8.534 0l1.414-.827zm24.187 13.972c2.351-1.36 2.351-3.564-.01-4.933l-11.372-6.568c-2.36-1.359-6.182-1.359-8.533 0l-1.415.827c-2.351 1.359-2.351 3.564 0 4.924l11.381 6.577c2.352 1.359 6.164 1.359 8.534 0l1.415-.827zm24.186 13.962c2.351-1.359 2.351-3.564 0-4.923l-11.381-6.568c-2.352-1.369-6.173-1.36-8.534 0l-1.415.817c-2.351 1.36-2.351 3.565.019 4.924l11.372 6.568c2.351 1.359 6.173 1.359 8.524 0l1.415-.818zm24.186 13.963c2.352-1.36 2.343-3.573 0-4.924l-11.381-6.568c-2.361-1.368-6.173-1.368-8.534 0l-1.414.818c-2.361 1.359-2.352 3.564.009 4.923l11.372 6.578c2.361 1.359 6.182 1.368 8.534 0l1.414-.827zm24.187 13.962c2.351-1.359 2.351-3.564 0-4.923l-11.373-6.577c-2.36-1.36-6.182-1.36-8.533 0l-1.424.817c-2.352 1.36-2.352 3.564.009 4.924l11.372 6.577c2.361 1.359 6.173 1.359 8.534 0l1.415-.818zm24.186 13.963c2.351-1.36 2.351-3.564 0-4.924l-11.381-6.577c-2.361-1.359-6.183-1.359-8.534 0l-1.415.827c-2.36 1.359-2.351 3.564 0 4.923l11.382 6.577c2.351 1.36 6.172 1.36 8.524 0l1.424-.826zm24.186 13.962c2.352-1.359 2.352-3.573-.009-4.923l-11.381-6.577c-2.352-1.36-6.173-1.36-8.543 0l-1.406.826c-2.351 1.36-2.351 3.564 0 4.924l11.382 6.568c2.351 1.359 6.182 1.359 8.533.009l1.424-.827zm24.186 13.963c2.352-1.36 2.343-3.564-.009-4.933l-11.372-6.568c-2.351-1.359-6.173-1.369-8.533 0l-1.415.818c-2.361 1.359-2.352 3.564 0 4.923l11.381 6.568c2.361 1.36 6.173 1.36 8.534 0l1.414-.808zm-320.861-113.06c2.361-1.359 2.352-3.564 0-4.923l-11.381-6.568c-2.361-1.359-6.173-1.369-8.534-.009l-11.372 6.568c-2.351 1.359-2.351 3.564.01 4.923l11.381 6.568c2.351 1.36 6.173 1.36 8.533 0l11.363-6.559zm24.187 13.972c2.351-1.359 2.351-3.564 0-4.923l-11.382-6.568c-2.36-1.36-6.173-1.36-8.533 0l-11.363 6.558c-2.352 1.36-2.352 3.564 0 4.933l11.381 6.568c2.361 1.359 6.173 1.359 8.534 0l11.363-6.568zm24.186 13.963c2.351-1.369 2.351-3.574-.009-4.924l-11.382-6.577c-2.351-1.36-6.172-1.36-8.533 0l-11.363 6.559c-2.361 1.359-2.361 3.555 0 4.923l11.381 6.568c2.361 1.36 6.182 1.36 8.534 0l11.372-6.549zm24.186 13.962c2.352-1.359 2.352-3.564-.009-4.924l-11.381-6.567c-2.352-1.369-6.173-1.369-8.534 0l-11.363 6.558c-2.351 1.36-2.351 3.574.009 4.933l11.382 6.568c2.351 1.359 6.173 1.359 8.533 0l11.363-6.568zm24.177 13.962c2.361-1.359 2.352-3.564 0-4.923l-11.381-6.577c-2.352-1.36-6.173-1.36-8.524 0l-11.372 6.568c-2.361 1.359-2.361 3.564 0 4.923l11.381 6.577c2.361 1.351 6.173 1.36 8.533-.009l11.363-6.559zm24.196 13.963c2.361-1.36 2.351-3.573 0-4.924l-11.381-6.577c-2.352-1.359-6.173-1.359-8.534 0l-11.372 6.568c-2.352 1.36-2.352 3.564 0 4.924l11.381 6.568c2.361 1.359 6.182 1.368 8.534.009l11.372-6.568zm24.186 13.962c2.361-1.359 2.342-3.564-.009-4.923l-11.381-6.568c-2.361-1.369-6.182-1.369-8.534 0l-11.363 6.559c-2.351 1.359-2.351 3.555 0 4.914l11.381 6.577c2.352 1.36 6.173 1.36 8.534 0l11.372-6.559zm24.186 13.963c2.361-1.36 2.352-3.564 0-4.933l-11.381-6.568c-2.351-1.359-6.173-1.359-8.524 0l-11.372 6.559c-2.361 1.369-2.352 3.564 0 4.933l11.381 6.568c2.351 1.359 6.173 1.368 8.533.009l11.363-6.568zm-107.446-89.92c2.351-1.351 2.351-3.564-.01-4.924l-11.381-6.568c-2.351-1.359-6.173-1.359-8.533 0l-11.363 6.559c-2.352 1.359-2.361 3.564 0 4.933l11.381 6.568c2.361 1.359 6.182 1.359 8.534 0l11.372-6.568zm24.186 13.962c2.352-1.359 2.352-3.564-.009-4.923l-11.372-6.577c-2.352-1.36-6.173-1.36-8.525 0l-11.372 6.558c-2.351 1.36-2.361 3.564.009 4.933l11.382 6.568c2.351 1.359 6.173 1.359 8.533 0l11.354-6.559zm24.186 13.963c2.352-1.36 2.352-3.564 0-4.915l-11.381-6.577c-2.361-1.359-6.173-1.359-8.534 0l-11.372 6.55c-2.351 1.359-2.351 3.573.01 4.933l11.381 6.567c2.351 1.36 6.173 1.36 8.533 0l11.363-6.558zm24.187 13.962c2.36-1.359 2.351-3.564 0-4.923l-11.391-6.577c-2.351-1.36-6.173-1.36-8.524 0l-11.372 6.558c-2.352 1.369-2.352 3.564 0 4.933l11.381 6.577c2.351 1.35 6.173 1.36 8.524 0l11.382-6.568zm24.186 13.963c2.351-1.36 2.342-3.564 0-4.924l-11.381-6.568c-2.361-1.359-6.173-1.369-8.534 0l-11.372 6.559c-2.352 1.359-2.352 3.564 0 4.923l11.381 6.568c2.343 1.36 6.173 1.369 8.534 0l11.372-6.558zm24.186 13.962c2.352-1.359 2.343-3.564-.009-4.924l-11.381-6.567c-2.361-1.36-6.164-1.369-8.525 0l-11.372 6.558c-2.351 1.36-2.351 3.564 0 4.933l11.381 6.577c2.352 1.36 6.173 1.36 8.525 0l11.381-6.577zm24.186 13.963c2.352-1.36 2.352-3.565 0-4.924l-11.381-6.568c-2.351-1.369-6.173-1.359-8.533-.009l-11.373 6.568c-2.351 1.359-2.351 3.564.01 4.923l11.372 6.577c2.351 1.36 6.182 1.36 8.533 0l11.372-6.567zm24.187 13.962c2.351-1.359 2.342-3.564-.009-4.924l-11.382-6.567c-2.351-1.36-6.173-1.36-8.533 0l-11.363 6.567c-2.352 1.36-2.352 3.565 0 4.924l11.381 6.568c2.352 1.359 6.182 1.369 8.534.009l11.372-6.577zm51.33 29.643c2.352-1.36 2.343-3.564 0-4.924l-38.534-22.248c-2.361-1.359-6.173-1.359-8.525-.009l-11.372 6.568c-2.351 1.35-2.351 3.564 0 4.923l38.535 22.248c2.351 1.36 6.173 1.36 8.533 0l11.363-6.558zm-24.159 13.944c2.361-1.36 2.352-3.564 0-4.924l-11.381-6.577c-2.351-1.359-6.173-1.359-8.524 0l-11.372 6.559c-2.352 1.359-2.361 3.564 0 4.923l11.381 6.568c2.351 1.36 6.182 1.369 8.534 0l11.362-6.549zm-24.149 13.953c2.351-1.359 2.342-3.564-.009-4.924l-11.382-6.567c-2.36-1.36-6.172-1.369-8.524 0l-11.372 6.558c-2.342 1.36-2.342 3.564.009 4.924l11.391 6.568c2.351 1.359 6.163 1.359 8.524 0l11.363-6.559zm-24.186-13.962c2.351-1.36 2.342-3.564-.01-4.933l-11.381-6.568c-2.361-1.36-6.182-1.36-8.524 0l-11.372 6.568c-2.352 1.359-2.352 3.564 0 4.923l11.381 6.577c2.351 1.36 6.173 1.369 8.534 0l11.372-6.567zm24.158-13.954c2.352-1.359 2.343-3.573 0-4.923l-11.381-6.577c-2.361-1.36-6.173-1.36-8.543 0l-11.363 6.558c-2.351 1.36-2.36 3.564 0 4.924l11.382 6.577c2.351 1.36 6.172 1.369 8.533 0l11.372-6.559zm-48.345-.018c2.352-1.36 2.343-3.564 0-4.924l-11.39-6.568c-2.352-1.359-6.173-1.359-8.525 0l-11.372 6.559c-2.351 1.36-2.351 3.564 0 4.924l11.382 6.568c2.351 1.359 6.182 1.359 8.533 0l11.372-6.559zm-196.512-169.24c2.361-1.359 2.351-3.564 0-4.923L189.12 335.8c-2.352-1.36-6.173-1.369-8.525 0l-11.372 6.559c-2.351 1.359-2.36 3.564 0 4.923l29.165 16.847c2.352 1.36 6.182 1.36 8.534 0l11.363-6.568zm24.186 13.963c2.352-1.36 2.352-3.564-.009-4.924l-11.381-6.568c-2.352-1.359-6.173-1.359-8.525 0l-11.372 6.568c-2.351 1.36-2.351 3.564 0 4.924l11.381 6.568c2.352 1.359 6.182 1.359 8.534 0l11.372-6.568zm24.186 13.971c2.361-1.359 2.352-3.564 0-4.923l-11.381-6.568c-2.361-1.36-6.173-1.36-8.534 0l-11.372 6.559c-2.351 1.359-2.351 3.564 0 4.923l11.382 6.568c2.351 1.369 6.182 1.369 8.533 0l11.372-6.559zm86.044 21.78c2.361-1.369 2.352-3.573-.009-4.924l-11.381-6.568c-2.352-1.368-6.173-1.368-8.525-.009l-11.372 6.568c-2.351 1.369-2.342 3.564.019 4.924l11.381 6.577c2.351 1.359 6.173 1.369 8.524 0l11.363-6.568zm24.186 13.972c2.361-1.369 2.352-3.574-.009-4.924l-11.381-6.577c-2.352-1.36-6.173-1.36-8.525-.009l-11.372 6.568c-2.36 1.359-2.351 3.564.01 4.923l11.372 6.568c2.36 1.36 6.182 1.369 8.533.009l11.372-6.558zm24.187 13.953c2.351-1.35 2.351-3.564 0-4.924l-11.382-6.568c-2.351-1.359-6.172-1.359-8.524 0l-11.372 6.559c-2.352 1.36-2.352 3.555 0 4.924l11.381 6.577c2.352 1.35 6.173 1.359 8.525 0l11.372-6.568zm24.186 13.972c2.361-1.36 2.352-3.565-.009-4.924l-11.381-6.568c-2.361-1.359-6.173-1.359-8.525-.009l-11.372 6.568c-2.361 1.359-2.352 3.555 0 4.923l11.381 6.577c2.352 1.36 6.173 1.36 8.534 0l11.372-6.567zm24.186 13.962c2.361-1.36 2.352-3.564-.009-4.933l-11.381-6.577c-2.352-1.35-6.173-1.35-8.525 0l-11.372 6.568c-2.351 1.36-2.351 3.564.009 4.924l11.373 6.567c2.36 1.36 6.182 1.36 8.533 0l11.372-6.549zm24.187 13.962c2.351-1.359 2.351-3.564 0-4.923l-11.373-6.568c-2.36-1.36-6.182-1.369-8.533-.009l-11.372 6.568c-2.343 1.35-2.343 3.555.018 4.923l11.372 6.568c2.361 1.36 6.182 1.369 8.534.009l11.354-6.568zm24.186 13.963c2.351-1.35 2.351-3.564-.009-4.924l-11.372-6.568c-2.361-1.368-6.182-1.368-8.534-.009l-11.363 6.559c-2.351 1.369-2.342 3.564 0 4.924l11.381 6.577c2.361 1.359 6.182 1.368 8.525.009l11.372-6.568zm37.818 21.835c2.342-1.36 2.342-3.574-.009-4.933l-25.013-14.44c-2.361-1.36-6.173-1.369-8.534-.009l-11.372 6.567c-2.352 1.36-2.342 3.564.009 4.915l25.022 14.449c2.352 1.36 6.173 1.36 8.525 0l11.372-6.549zM304.328 379.35c2.352-1.359 2.343-3.564-.009-4.924l-11.381-6.567c-2.352-1.36-6.182-1.36-8.534 0l-11.362 6.558c-2.352 1.36-2.352 3.564.009 4.924l11.381 6.568c2.361 1.368 6.173 1.368 8.534.009l11.362-6.568zm24.187 13.962c2.361-1.359 2.351-3.564 0-4.932l-11.381-6.568c-2.352-1.36-6.173-1.36-8.525 0l-11.372 6.568c-2.352 1.35-2.342 3.564.009 4.914l11.381 6.577c2.352 1.36 6.173 1.36 8.534 0l11.354-6.559zm-96.736-55.849c2.351-1.36 2.351-3.574-.009-4.924l-18.491-10.674c-2.361-1.359-6.173-1.359-8.534-.009l-11.372 6.568c-2.352 1.359-2.352 3.564.009 4.923l18.491 10.674c2.352 1.36 6.173 1.36 8.525 0l11.381-6.558zm24.186 13.962c2.352-1.369 2.352-3.564-.009-4.924l-11.381-6.567c-2.361-1.36-6.173-1.369-8.534 0l-11.363 6.558c-2.351 1.36-2.351 3.564 0 4.924l11.381 6.568c2.352 1.359 6.182 1.359 8.534 0l11.372-6.559zm24.177 13.963c2.352-1.36 2.352-3.565 0-4.924l-11.39-6.568c-2.352-1.359-6.173-1.369-8.525 0l-11.372 6.559c-2.351 1.359-2.351 3.564.009 4.923l11.382 6.568c2.351 1.36 6.173 1.369 8.524 0l11.372-6.558z" fill="#FF6A6A"/><path opacity=".2" d="M257.522 546.321c-3.527 2.049-9.259 2.039-12.796 0l-97.572-56.337c-3.536-2.039-3.536-5.346 0-7.385l61.977-35.788c3.537-2.039 9.269-2.03 12.796.009l97.572 56.328c3.546 2.048 3.546 5.355.018 7.394l-61.995 35.779z" fill="#000"/><path opacity=".2" d="M147.146 485.06l61.986-35.788c3.537-2.039 9.269-2.03 12.796 0l97.572 56.337c1.222.707 1.993 1.561 2.37 2.471.716-1.718-.046-3.592-2.37-4.933l-97.572-56.337c-3.537-2.039-9.259-2.048-12.796-.009l-61.977 35.788c-2.315 1.341-3.086 3.215-2.37 4.924.377-.891 1.149-1.745 2.361-2.453z" fill="#000"/><path d="M567.694 523.449c-.009.937-.662 2.067-1.47 2.535l-20.292 11.712c-.808.469-1.469.092-1.469-.836 0-.946.661-2.085 1.469-2.553l20.274-11.694c.817-.468 1.488-.092 1.488.836zm6.31-5.337c-.808.469-1.469 1.608-1.469 2.545-.01.936.652 1.313 1.46.845.809-.46 1.47-1.608 1.461-2.536.009-.946-.652-1.313-1.452-.854zm5.356-3.086c-.809.468-1.461 1.598-1.461 2.535s.643 1.313 1.47.845c.799-.459 1.46-1.598 1.46-2.526-.018-.937-.661-1.323-1.469-.854zm-156.022 91.766c0 .928-.67 2.067-1.469 2.535l-20.283 11.712c-.808.469-1.469.092-1.479-.836.01-.937.671-2.076 1.479-2.544l20.273-11.703c.809-.468 1.479-.101 1.479.836z" fill="#FF6A6A"/><path opacity=".3" d="M295.123 55.663v-7.386L527.249 182.3v7.385L295.123 55.663zM522.5 432.51c-7.854 32.298-27.778 47.353-75.875 75.122l-132.303 75.664L84.86 450.81l-1.323-2.288 84.289-48.666c40.648-23.47 76.876-66.496 100.199-114.272L522.5 432.511z" fill="#000"/><path d="M527.257 189.676L295.122 55.664l.009 123.862c0 34.079-10.151 71.319-27.108 106.05l254.475 146.928c3.73-15.341 4.75-34.548 4.75-60.884l.009-181.944z" fill="#FF6A6A"/><path d="M373.248 527.059c70.942-40.96 128.638-140.819 128.62-222.619l.018-170.002L272.415 1.96h-2.646v170.002c0 80.955-57.108 179.794-127.306 220.331l-84.29 48.667 1.324 2.287 229.471 132.487 84.28-48.675z" fill="#fff"/><path d="M288.959 576.867c-.193 0-.395-.055-.569-.156L58.919 444.224a1.112 1.112 0 0 1-.414-.414l-1.323-2.287a1.095 1.095 0 0 1-.11-.863c.083-.294.267-.542.533-.689l84.289-48.667c69.877-40.353 126.737-138.743 126.737-219.339V1.953c0-.303.12-.597.331-.808.211-.211.505-.33.808-.33h2.646c.202 0 .395.055.569.156l229.471 132.487c.349.202.57.579.57.992l-.018 170.002c.018 82.158-57.935 182.467-129.199 223.611l-.57-.992.57.992-84.289 48.666a1.154 1.154 0 0 1-.561.138zM60.324 442.405l228.635 132.009 83.72-48.335c70.63-40.776 128.069-140.195 128.05-221.636l.019-169.341-228.645-132H270.9v168.854c0 81.322-57.375 180.602-127.876 221.314l-83.297 48.097.597 1.038z" fill="#E40303"/><path d="M382.093 166.912V96.778c-.009-1.718-1.387-3.904-2.866-4.758-19.18-11.07-37.046-26.731-46.664-40.895-.973-1.424-2.333-2.214-3.306-1.902-9.609 3.059-27.466-1.91-46.802-13.071-.726-.487-1.415-.542-1.911-.258-.496.294-.817.919-.817 1.792v70.124c0 32.527 48.032 85.438 50.081 87.679.349.377.725.689 1.102.909.377.221.753.34 1.093.359 1.332.082 22.074 1.185 36.44-6.982 0 0-.009.01-.018.01 7.762-4.4 13.668-11.483 13.668-22.873z" fill="#FF6A6A"/><path d="M283.888 206.899c.156-.928.321-1.856.468-2.784l89.921 51.845c-.092.965-.184 1.92-.304 2.894l-90.085-51.955zm109.881 5.07v3.059l65.293 37.625v-3.059l-65.293-37.625zm-30.019 10.674l-76.895-44.331c-.037.992-.073 1.994-.119 2.995l77.023 44.395-.009-3.059zm-11.473-20.622l-65.293-37.625v3.059l65.293 37.625v-3.059zm41.492 23.938v3.068l53.82 31.002v-3.058l-53.82-31.012zm-18.546-24.682l-88.239-50.871v3.059l88.239 50.871v-3.059zm-47.601 176.166c.496-.735.992-1.461 1.488-2.205l-92.07-53.112c-.487.744-1.001 1.46-1.488 2.204l92.07 53.113zm-15.019-25.528c.459-.762.909-1.525 1.359-2.278l-69.196-39.903c-.46.762-.901 1.525-1.36 2.278l69.197 39.903zm-25.656 97.343l55.427 31.975c.79-.56 1.571-1.129 2.352-1.708l-55.565-32.059c-.735.616-1.479 1.194-2.214 1.792zm17.857-138.624l-46.186-26.62c-.386.799-.781 1.589-1.167 2.388l46.187 26.611c.385-.79.79-1.58 1.166-2.379zm-5.475 127.968c-.689.634-1.378 1.249-2.066 1.865l78.998 45.58c.716-.597 1.424-1.213 2.14-1.819l-79.072-45.626zm-90.131-80.064l57.072 32.922c.615-.652 1.212-1.332 1.828-2.002l-57.127-32.95c-.588.68-1.176 1.351-1.773 2.03zm19.575-24.462c-.514.717-1.029 1.452-1.543 2.168l80.458 46.416c.533-.716 1.084-1.414 1.617-2.131l-80.532-46.453zm153.651 88.625l-45.717-26.354c-.515.717-1.029 1.442-1.562 2.15l45.672 26.326c.533-.707 1.084-1.405 1.607-2.122zm-37.432-38.305c-.487.744-.992 1.47-1.488 2.205l68.738 39.646c.486-.735.983-1.461 1.479-2.205l-68.729-39.646zm7.744-12.373c-.45.762-.9 1.516-1.36 2.269l91.73 52.92c.459-.754.909-1.516 1.359-2.279l-91.729-52.91zm-132.653-26.464c-.56.698-1.12 1.387-1.681 2.094l91.785 52.947a421.35 421.35 0 0 0 1.709-2.076l-91.813-52.965zm96.892 75.167l91.216 52.635c.624-.661 1.231-1.332 1.846-1.993l-91.243-52.644c-.588.68-1.203 1.332-1.819 2.002zm-7.752 8.268c-.634.652-1.259 1.322-1.902 1.965l67.948 39.196c.661-.624 1.313-1.286 1.975-1.929l-68.021-39.232zm-23.222-237.858c-.101.964-.193 1.92-.303 2.884l43.476 25.041c.046-1.02.037-2.012.064-3.022l-43.237-24.903zm-54.022 292.651l-2.646 1.534 88.239 50.936 2.655-1.525-88.248-50.945zm123.549-157.491c.349-.818.698-1.635 1.038-2.462l-91.922-53.02c-.349.817-.689 1.635-1.038 2.452l91.922 53.03zm-154.221 153.78l-88.248-50.945-2.645 1.534 88.248 50.945 2.645-1.534zm42.797-3.289l-2.655 1.535 65.303 37.689 2.645-1.525-65.293-37.699zm12.116-6.99l-2.645 1.525 76.784 44.312 2.655-1.525-76.794-44.312zM393.769 197.97v3.059l42.347 24.379v-3.059l-42.347-24.379zM273.683 521.853l-53.82-31.066-2.646 1.534 53.82 31.066 2.646-1.534zm22.303 26.869l-88.239-50.945-2.655 1.534 88.248 50.945 2.646-1.534zM166.245 473.82l-65.293-37.689-2.645 1.525 65.302 37.698 2.636-1.534zm161.707-66.018c-.56.698-1.12 1.396-1.681 2.085l79.963 46.131c.579-.689 1.167-1.359 1.736-2.057l-80.018-46.159zm-62.399 56.493l88.349 50.99 2.655-1.534-88.414-51.027c-.854.542-1.726 1.047-2.59 1.571zm128.216-350.293v3.059l76.766 44.239v-3.059l-76.766-44.239zm0 13.99v3.059l65.293 37.607v-3.059l-65.293-37.607zm0 14v3.058l88.239 50.862.009-3.059-88.248-50.861zm-44.744 117.055c.165-.928.34-1.847.487-2.765l-67.627-38.994c-.192.909-.385 1.809-.587 2.719l67.727 39.04zm44.744-75.076v3.059l88.239 50.871v-3.059l-88.239-50.871zm.009-27.98v3.059l76.766 44.239v-3.068l-76.766-44.23zm-39.885 136.786c.267-.873.515-1.745.772-2.618l-79.963-46.113c-.275.854-.542 1.718-.827 2.581l80.018 46.15zm39.876-189.715l88.239 50.853v-3.059l-88.239-50.853v3.059zm-54.986 194.051l-68.756-39.637c-.313.836-.643 1.662-.965 2.498l68.829 39.683c.304-.845.588-1.699.892-2.544zm26.133-186.932v1.534c-1.267-.735-2.296-1.066-3.077-1.001-.781.073-1.534.615-2.251 1.635-.486.689-1.23 2.554-2.259 5.585l-13.522 37.285-1.433-.817-11.05-42.154-10.987 29.44-1.286-.753-14.412-54.784c-1.075-4.079-1.755-6.522-2.049-7.321-.477-1.323-1.12-2.471-1.947-3.454-.827-.983-1.938-1.883-3.353-2.692V71.15l17.968 10.371v1.525l-.855-.496c-1.267-.735-2.223-.955-2.893-.689-.671.276-1.001.882-1.001 1.819 0 .964.523 3.481 1.57 7.541l9.554 36.918 8.046-22.046-1.433-5.53-1.139-4.418c-.505-1.663-1.056-3.197-1.681-4.602a11.779 11.779 0 0 0-1.139-1.984 14.726 14.726 0 0 0-1.791-2.104c-.45-.422-1.176-.918-2.149-1.488v-1.525l18.886 10.913v1.525l-1.286-.744c-1.342-.763-2.315-1.001-2.931-.707-.624.303-.937 1.02-.937 2.149 0 1.406.533 4.161 1.608 8.267l9.305 35.779 9.223-25.491c1.047-2.801 1.57-4.868 1.57-6.182 0-.633-.174-1.322-.523-2.066a6.367 6.367 0 0 0-1.295-1.911c-.919-.91-2.085-1.782-3.546-2.627v-1.525l14.495 8.359zm28.247 142.748c-2.444 31.342-12.438 64.53-27.76 95.744l91.684 52.883c15.542-32.142 24.921-66.331 24.921-97.113v-.276l-88.845-51.238zM252.555 450.488c10.334-5.97 20.365-13.255 29.964-21.586l-90.774-52.378c-12.851 12.08-26.52 22.496-40.684 30.672l-16.415 9.479 88.257 50.945 29.652-17.132z" fill="#FF6A6A"/><path d="M624.656 428.857c0 3.785-2.655 5.31-5.934 3.418l-67.884-39.196c-3.279-1.893-5.934-6.495-5.925-10.27l-.009-111.461c.009-3.775 2.664-5.309 5.934-3.417l67.884 39.205c3.279 1.883 5.934 6.476 5.924 10.261l.01 111.46z" fill="#fff"/><path d="M621.376 434.229c-1.01 0-2.113-.322-3.224-.965l-67.883-39.196c-3.647-2.103-6.504-7.054-6.504-11.262l-.009-111.451c0-2.251.827-3.959 2.315-4.823 1.488-.854 3.389-.707 5.337.414l67.883 39.205c3.656 2.103 6.513 7.045 6.494 11.252l.01 111.452c0 2.251-.818 3.968-2.306 4.823a4.172 4.172 0 0 1-2.113.551zm-73.193-165.961c-.367 0-.698.083-.973.239-.744.432-1.167 1.461-1.167 2.848l.009 111.451c0 3.353 2.453 7.606 5.356 9.278l67.883 39.196c1.203.689 2.315.845 3.059.413.744-.431 1.166-1.469 1.166-2.847l-.009-111.452c.009-3.353-2.443-7.597-5.355-9.268l-67.883-39.205c-.754-.432-1.47-.653-2.086-.653z" fill="#E40303"/><path d="M613.108 400.923c0 .909-.643 1.277-1.424.817l-53.792-31.057c-.79-.45-1.424-1.552-1.433-2.462 0-.9.643-1.267 1.433-.808l53.792 31.057c.781.45 1.415 1.553 1.424 2.453zm-9.902 7.422c0 .909-.634 1.277-1.424.827l-43.899-25.353c-.79-.45-1.424-1.553-1.424-2.462-.009-.9.634-1.268 1.424-.818l43.908 25.353c.781.441 1.415 1.553 1.415 2.453zm-9.884-12.272c0-.901-.634-2.003-1.415-2.453l-34.015-19.649c-.79-.45-1.424-.082-1.424.818 0 .909.634 2.012 1.424 2.462l34.015 19.648c.781.441 1.415.083 1.415-.826zm19.777-18.124c0 .909-.634 1.268-1.424.818l-53.801-31.058c-.781-.459-1.415-1.552-1.415-2.462 0-.909.634-1.276 1.424-.826l53.792 31.057c.79.459 1.424 1.562 1.424 2.471zm-9.884 7.422c0 .91-.634 1.277-1.415.818l-43.917-25.353c-.781-.45-1.415-1.553-1.415-2.462 0-.909.634-1.277 1.424-.818l43.899 25.353c.781.45 1.415 1.553 1.424 2.462zm-9.893-12.272c0-.91-.634-2.021-1.415-2.462l-34.015-19.648c-.79-.451-1.424-.074-1.424.817.009.919.634 2.012 1.424 2.471l34.015 19.63c.781.469 1.415.092 1.415-.808zm-8.543-68.122c-9.976-5.741-18.05-1.093-18.059 10.398 0 11.501 8.083 25.5 18.068 31.259 9.967 5.76 18.05 1.094 18.05-10.407l-18.05-10.417-.009-20.833z" fill="#F00"/><path d="M588.73 302.707v20.824l18.051 10.426c.009-11.51-8.075-25.5-18.051-31.25z" fill="#FF6A6A"/><path d="M261.926 48.461l-13.825 7.983c-.505.294-.827.918-.818 1.791v70.125c0 32.527 48.033 85.437 50.082 87.678.349.377.734.689 1.102.91.376.22.753.34 1.093.358 1.332.083 22.073 1.185 36.44-6.981l.009.009 14-8.084c7.661-4.409 13.475-11.463 13.475-22.771v-70.134c-.009-1.718-1.396-3.895-2.875-4.758-19.18-11.06-37.046-26.731-46.664-40.896-.974-1.433-2.333-2.213-3.307-1.901-9.599 3.059-27.466-1.91-46.793-13.072-.725-.505-1.414-.55-1.919-.257z" fill="#fff"/><path d="M360.627 104.578c-19.18-11.06-37.047-26.73-46.664-40.895-.974-1.433-2.334-2.214-3.307-1.902-9.599 3.06-27.466-1.91-46.793-13.071-.744-.496-1.424-.542-1.929-.248l-13.825 7.982c.496-.284 1.185-.239 1.911.258 19.336 11.16 37.193 16.13 46.802 13.071.974-.303 2.333.478 3.307 1.901 9.608 14.156 27.484 29.827 46.664 40.896 1.479.854 2.866 3.04 2.866 4.758v70.134c0 11.39-5.907 18.473-13.66 22.873.01 0 .01-.01.019-.01l.009.01 13.999-8.084c7.661-4.409 13.476-11.464 13.476-22.772v-70.133c-.009-1.727-1.396-3.904-2.875-4.768z" fill="#FF6A6A"/><path d="M303.159 218.528c-2.113 0-3.445-.073-3.656-.092-.533-.027-1.075-.202-1.607-.514a6.126 6.126 0 0 1-1.36-1.112c-2.067-2.259-50.393-55.473-50.393-88.459V58.235c-.009-1.249.496-2.26 1.387-2.774l13.824-7.982c.019-.01.046-.028.074-.037.909-.487 2.012-.377 3.059.321 18.923 10.922 36.504 15.892 45.819 12.934 1.488-.468 3.334.487 4.602 2.352 9.526 14.036 27.263 29.569 46.287 40.546 1.893 1.102 3.436 3.674 3.445 5.741v70.134c0 10.38-4.703 18.353-13.972 23.718a.423.423 0 0 1-.082.046l-14 8.083c-.055.037-.11.055-.174.083-11.262 6.329-26.382 7.128-33.253 7.128zM262.438 49.481l-13.769 7.946c-.129.073-.248.349-.248.79v70.125c0 32.104 47.748 84.684 49.778 86.907.266.294.56.532.836.689.22.128.422.202.588.211.881.055 21.66 1.203 35.815-6.834a.83.83 0 0 1 .156-.074l13.77-7.955.083-.055c8.561-4.924 12.906-12.254 12.906-21.78v-70.133c-.01-1.25-1.13-3.087-2.306-3.776-19.299-11.133-37.322-26.942-47.031-41.235-.754-1.111-1.672-1.562-2.021-1.451-9.893 3.15-28.173-1.892-47.702-13.173-.414-.266-.68-.312-.772-.248a.254.254 0 0 1-.083.046z" fill="#E40303"/><path d="M298.476 155.192l-15.23-26.344 4.198-2.416 11.023 19.079 16.553-9.535 4.207 7.266-20.751 11.95z" fill="#F00"/><path opacity=".3" d="M298.475 155.191l-15.221-26.345 4.198-2.416 11.023 19.079 14.082-8.111c-3.426-6.504-8.46-12.273-14.082-15.515-10.352-5.98-18.739-1.139-18.739 10.793.01 11.942 8.387 26.455 18.739 32.426 10.353 5.98 18.74 1.148 18.749-10.793 0-2.931-.515-6.026-1.424-9.103l-17.325 9.985z" fill="#FF6A6A"/><path d="M543.443 137.188c0 3.637 2.563 8.074 5.723 9.902l65.495 37.818c3.16 1.819 5.714.349 5.714-3.298v-28.347c0-3.647-2.563-8.084-5.723-9.912l-65.486-37.809c-3.16-1.828-5.732-.349-5.723 3.307v28.339z" fill="#fff"/><path d="M617.224 186.838c-.983 0-2.049-.313-3.133-.937l-65.495-37.818c-3.527-2.04-6.301-6.826-6.301-10.895V108.85c0-2.186.799-3.849 2.241-4.694 1.452-.836 3.298-.698 5.19.395l65.486 37.809c3.527 2.039 6.292 6.825 6.302 10.894v28.348c0 2.186-.8 3.848-2.242 4.684a3.906 3.906 0 0 1-2.048.552zm-70.612-80.928c-.349 0-.661.074-.918.23-.708.404-1.103 1.396-1.103 2.71v28.347c0 3.215 2.361 7.303 5.154 8.911l65.495 37.818c1.148.661 2.204.808 2.902.395.698-.405 1.103-1.387 1.103-2.71v-28.348c0-3.224-2.361-7.312-5.154-8.919l-65.485-37.809c-.726-.413-1.406-.625-1.994-.625z" fill="#E40303"/><path d="M609.24 154.668c0 .873-.616 1.231-1.378.79l-51.9-29.964c-.753-.441-1.369-1.488-1.369-2.37 0-.882.625-1.231 1.378-.79l51.9 29.955c.744.432 1.369 1.507 1.369 2.379zm-9.544 7.156c0 .882-.616 1.222-1.378.799l-42.356-24.452c-.763-.441-1.378-1.507-1.378-2.38 0-.863.615-1.231 1.378-.78l42.365 24.452c.753.423 1.378 1.488 1.369 2.361zm-9.535-11.831c0-.882-.616-1.939-1.369-2.37l-32.821-18.951c-.762-.45-1.378-.091-1.378.781 0 .882.616 1.938 1.378 2.379l32.821 18.951c.753.431 1.378.082 1.369-.79z" fill="#FF6A6A"/></g><defs><clipPath id="a"><path fill="#fff" transform="translate(0 .814)" d="M0 0h717v660.636H0z"/></clipPath></defs></svg>