<svg width="3" height="12" viewBox="0 0 3 12" fill="none" xmlns="http://www.w3.org/2000/svg">
<g clip-path="url(#clip0)">
<path fill-rule="evenodd" clip-rule="evenodd" d="M-2.67312e-07 6.11538L0 -1.31134e-07L3 0L3 6.11539L-2.67312e-07 6.11538ZM-8.01936e-07 18.3462L-5.34624e-07 12.2308L3 12.2308L3 18.3462L-8.01936e-07 18.3462ZM-1.33656e-06 30.5769L-1.06925e-06 24.4615L3 24.4615L3 30.5769L-1.33656e-06 30.5769ZM-1.87118e-06 42.8077L-1.60387e-06 36.6923L3 36.6923L3 42.8077L-1.87118e-06 42.8077ZM-2.40581e-06 55.0385L-2.1385e-06 48.9231L3 48.9231L3 55.0385L-2.40581e-06 55.0385ZM-2.94043e-06 67.2692L-2.67312e-06 61.1538L3 61.1538L3 67.2692L-2.94043e-06 67.2692ZM-3.47506e-06 79.5L-3.20774e-06 73.3846L3 73.3846L3 79.5L-3.47506e-06 79.5ZM-4.00968e-06 91.7308L-3.74237e-06 85.6154L3 85.6154L3 91.7308L-4.00968e-06 91.7308ZM-4.5443e-06 103.962L-4.27699e-06 97.8462L3 97.8462L3 103.962L-4.5443e-06 103.962ZM-5.07893e-06 116.192L-4.81162e-06 110.077L3 110.077L2.99999 116.192L-5.07893e-06 116.192ZM-5.61355e-06 128.423L-5.34624e-06 122.308L2.99999 122.308L2.99999 128.423L-5.61355e-06 128.423ZM-6.14818e-06 140.654L-5.88086e-06 134.538L2.99999 134.538L2.99999 140.654L-6.14818e-06 140.654Z" fill="black"/>
</g>
<defs>
<clipPath id="clip0">
<rect width="3" height="12" fill="white"/>
</clipPath>
</defs>
</svg>
