<svg width="141" height="3" viewBox="0 0 141 3" fill="none" xmlns="http://www.w3.org/2000/svg">
<path fill-rule="evenodd" clip-rule="evenodd" d="M6.28921 3L0.173828 3L0.173828 0L6.28921 -5.34624e-07L6.28921 3ZM18.52 3L12.4046 3L12.4046 -1.06925e-06L18.52 -1.60387e-06L18.52 3ZM30.7508 3L24.6354 3L24.6354 -2.1385e-06L30.7508 -2.67312e-06L30.7508 3ZM42.9815 3L36.8661 3L36.8661 -3.20774e-06L42.9815 -3.74237e-06L42.9815 3ZM55.2123 3L49.0969 3L49.0969 -4.27699e-06L55.2123 -4.81161e-06L55.2123 3ZM67.4431 2.99999L61.3277 2.99999L61.3277 -5.34624e-06L67.4431 -5.88086e-06L67.4431 2.99999ZM79.6738 2.99999L73.5584 2.99999L73.5584 -6.41549e-06L79.6738 -6.95011e-06L79.6738 2.99999ZM91.9046 2.99999L85.7892 2.99999L85.7892 -7.48473e-06L91.9046 -8.01936e-06L91.9046 2.99999ZM104.135 2.99999L98.02 2.99999L98.02 -8.55398e-06L104.135 -9.08861e-06L104.135 2.99999ZM116.366 2.99999L110.251 2.99999L110.251 -9.62323e-06L116.366 -1.01579e-05L116.366 2.99999ZM128.597 2.99999L122.482 2.99999L122.482 -1.06925e-05L128.597 -1.12271e-05L128.597 2.99999ZM140.828 2.99999L134.712 2.99999L134.712 -1.17617e-05L140.828 -1.22964e-05L140.828 2.99999Z" fill="#E6BA7B"/>
</svg>
