<svg width="298" height="96" viewBox="0 0 298 96" fill="none" xmlns="http://www.w3.org/2000/svg">
<path d="M136.404 15.3283H131.984V40.1143H136.404V15.3283ZM146.797 40.1143V28.4863L146.559 21.4483H146.763L158.051 40.1143H163.321V15.3283H158.901V26.7863L159.173 34.0623H158.969L147.613 15.3283H142.377V40.1143H146.797ZM167.571 32.3963C167.605 34.8103 168.489 36.7823 170.257 38.2443C172.059 39.7063 174.541 40.4543 177.703 40.4543C180.729 40.4543 183.109 39.7743 184.877 38.4143C186.679 37.0543 187.563 35.1503 187.563 32.7363C187.563 28.7583 184.877 26.5143 180.899 25.7323L176.649 24.8823C175.731 24.7123 175.629 24.6443 174.711 24.3383C174.269 24.1683 173.929 23.9643 173.691 23.7943C173.283 23.3863 172.773 22.6383 172.773 21.7203C172.773 19.7143 174.337 18.5243 177.159 18.5243C180.049 18.5243 181.919 19.8163 182.089 22.2983H186.679C186.645 20.0883 185.795 18.3203 184.129 16.9943C182.463 15.6683 180.219 14.9883 177.363 14.9883C174.575 14.9883 172.331 15.6683 170.631 17.0283C168.931 18.3543 168.081 20.1223 168.081 22.3323C168.081 24.3383 168.965 25.9703 169.883 26.8203C170.359 27.2623 170.971 27.6363 171.753 28.0103C172.535 28.3503 173.147 28.5883 173.555 28.6903C173.963 28.7923 174.507 28.9283 175.187 29.0643L179.369 29.9483C180.185 30.1183 180.593 30.2203 181.443 30.7303C182.361 31.1723 182.803 32.0223 182.803 33.2123C182.803 35.4223 180.933 36.8843 177.771 36.8843C174.235 36.8843 172.297 35.2863 172.161 32.3963H167.571ZM188.298 15.3283V19.2723H195.472V40.1143H199.926V19.2723H207.134V15.3283H188.298ZM227.889 40.1143L218.675 15.3283H213.507L204.497 40.1143H209.121L210.889 35.1503H221.293L223.027 40.1143H227.889ZM213.337 28.2143L216.057 19.9523H216.261L218.879 28.2143L220.069 31.6483H212.113L213.337 28.2143ZM234.719 40.1143V28.4863L234.481 21.4483H234.685L245.973 40.1143H251.243V15.3283H246.823V26.7863L247.095 34.0623H246.891L235.535 15.3283H230.299V40.1143H234.719ZM254.405 15.3283V19.2723H261.579V40.1143H266.033V19.2723H273.241V15.3283H254.405Z" fill="#313131"/>
<path d="M136.404 79.1143V70.0363H142.932C145.618 70.0363 146.502 71.1243 146.502 73.5383V76.1223C146.502 77.5843 146.638 78.6043 146.876 79.1143H151.432C151.194 78.5023 151.058 77.5503 151.058 76.2583V72.7903C151.058 70.1383 149.902 68.5403 147.59 67.9623V67.7243C150.004 66.6023 151.466 64.3923 151.466 61.5703C151.466 57.0823 148.712 54.3283 143.646 54.3283H131.984V79.1143H136.404ZM136.404 58.2043H142.456C145.312 58.2043 146.74 59.4963 146.74 62.0803C146.74 64.5623 145.006 66.1603 142.116 66.1603H136.404V58.2043ZM173.656 79.1143V75.2043H161.008V68.1323H171.956V64.4603H161.008V58.2383H173.656V54.3283H156.588V79.1143H173.656ZM190.301 79.1143C192.715 79.1143 194.653 78.5023 196.081 77.2783C197.543 76.0203 198.257 74.3883 198.257 72.3143C198.257 69.4583 196.829 67.2823 194.075 66.4663V66.1603C196.285 65.3103 197.611 63.2363 197.611 60.6183C197.611 56.8443 194.789 54.3283 190.301 54.3283H178.435V79.1143H190.301ZM182.787 57.7963H189.213C191.525 57.7963 193.021 59.0883 193.021 61.2303C193.021 63.4063 191.559 64.7323 189.213 64.7323H182.787V57.7963ZM182.787 68.1663H189.349C191.831 68.1663 193.565 69.3223 193.565 71.8723C193.565 74.2863 191.933 75.6123 189.349 75.6123H182.787V68.1663ZM222.477 79.1143L213.263 54.3283H208.095L199.085 79.1143H203.709L205.477 74.1503H215.881L217.615 79.1143H222.477ZM207.925 67.2143L210.645 58.9523H210.849L213.467 67.2143L214.657 70.6483H206.701L207.925 67.2143ZM219.874 54.3283V58.2723H227.048V79.1143H231.502V58.2723H238.71V54.3283H219.874ZM258.456 79.1143V75.2043H245.808V68.1323H256.756V64.4603H245.808V58.2383H258.456V54.3283H241.388V79.1143H258.456Z" fill="#FF6067"/>
<path d="M83.6736 57.458C83.8667 57.6147 83.9978 57.7044 84.1098 57.8141C86.3843 60.0397 88.655 62.269 90.9328 64.491C91.0823 64.6368 91.0573 64.7546 90.9918 64.9169C85.4457 78.6721 75.9046 88.1878 61.9945 93.0551C58.9311 94.1271 55.7766 94.808 52.5569 95.1862C49.3858 95.5588 46.2097 95.6059 43.0357 95.2936C22.9731 93.32 6.94147 79.148 2.00033 59.9713C0.890118 55.6627 0.500804 51.2933 0.573992 46.857C0.747702 36.3405 4.13977 26.9647 10.4776 18.7232C17.2907 9.86397 26.1757 4.19855 36.9797 1.67434C41.2458 0.677541 45.575 0.300063 49.9372 0.600515C62.8175 1.48761 73.6047 6.80537 82.2516 16.5427C85.815 20.5554 88.5381 25.1169 90.5961 30.093C90.7234 30.4009 90.8661 30.7023 90.9989 31.0079C91.0743 31.1813 91.1832 31.2487 91.3769 31.1904C92.19 30.9453 93.0076 30.7151 93.8204 30.469C94.5725 30.2414 95.3195 29.9966 96.0714 29.7692C96.1974 29.731 96.3379 29.7426 96.5654 29.7233C95.209 36.9972 94.0477 44.2494 92.5069 51.4675C86.9646 46.7681 81.6063 41.9145 76.2844 36.8964C76.5965 36.7495 76.8256 36.6219 77.0681 36.5308C78.4321 36.0181 79.8024 35.5229 81.1643 35.0045C82.1067 34.6458 82.2391 34.309 81.8389 33.3764C78.2751 25.069 72.5252 18.7865 64.7237 14.4353C61.1287 12.4302 57.2775 11.1205 53.2292 10.4531C51.1883 10.1166 49.1173 10.1159 47.0537 10.1316C45.5868 10.1428 44.1156 10.1572 42.6546 10.2763C40.4526 10.4558 38.327 11.047 36.2287 11.7249C30.5975 13.5442 25.5918 16.4702 21.3394 20.6399C16.034 25.8424 12.4507 32.0752 10.7985 39.403C9.96926 43.0801 9.76336 46.8112 9.98739 50.5704C10.2531 55.0287 11.2381 59.3163 13.0292 63.3975C15.8446 69.8125 20.1387 75.0016 25.7701 79.0586C29.9685 82.083 34.594 84.1275 39.634 85.1939C43.0908 85.9254 46.5802 86.1237 50.1035 85.8641C63.4822 84.878 75.8244 76.1578 81.317 63.7421C81.9982 62.2024 82.4932 60.5779 83.0788 58.9945C83.2608 58.5023 83.4572 58.0157 83.6736 57.458Z" fill="#FF6067"/>
<path d="M49.9441 72C48.1349 72 46.3623 72 44.5578 72C44.5578 70.1649 44.5578 68.3322 44.5578 66.4775C43.7735 66.3742 43.017 66.2818 42.2626 66.1738C40.1711 65.8746 38.1284 65.3729 36.1741 64.5267C35.8457 64.3845 35.5381 64.1863 35.2309 63.9966C35.0365 63.8765 34.9599 63.7001 35.0201 63.4453C35.4167 61.7677 35.7993 60.0864 36.1924 58.4079C36.2904 57.9896 36.4098 57.5768 36.5325 57.1123C36.8028 57.2215 37.0493 57.3068 37.2844 57.4184C38.5216 58.0061 39.7812 58.5251 41.1016 58.8805C42.9793 59.3858 44.8807 59.6464 46.8202 59.5025C47.833 59.4272 48.8079 59.2002 49.7203 58.6902C51.4979 57.6967 51.498 55.8697 51.0388 54.5819C50.8043 53.9241 50.3444 53.4388 49.8182 53.0259C48.751 52.1887 47.5314 51.6582 46.2892 51.1846C44.4195 50.4718 42.5629 49.729 40.7998 48.7573C39.3047 47.9332 37.972 46.8844 36.9605 45.4639C35.0656 42.8026 34.7747 39.877 35.7384 36.7656C36.4259 34.546 37.903 33.0012 39.6887 31.722C41.1061 30.7068 42.6924 30.0933 44.3479 29.6499C44.8167 29.5243 44.7554 29.6416 44.7563 29.0914C44.7589 27.518 44.7572 25.9445 44.7572 24.371C44.7572 24.2541 44.7572 24.1373 44.7572 24C46.6307 24 48.4845 24 50.3619 24C50.3619 25.7008 50.3619 27.3889 50.3619 29.1192C50.7702 29.1591 51.1611 29.1905 51.5502 29.2364C53.6666 29.4861 55.7453 29.9065 57.7208 30.7678C58.482 31.0997 58.4792 31.113 58.2704 31.9418C57.9091 33.3757 57.5615 34.8136 57.1764 36.2405C56.8461 37.4646 56.5675 37.6102 55.4248 37.1774C54.111 36.6799 52.7887 36.2191 51.403 35.9944C49.7496 35.7262 48.0938 35.6401 46.456 36.0897C46.023 36.2086 45.5934 36.3894 45.2025 36.6166C43.9195 37.3623 43.5231 39.0414 44.2994 40.3397C44.8609 41.2787 45.7084 41.8795 46.6428 42.319C48.2745 43.0866 49.9385 43.7793 51.5826 44.5188C53.0451 45.1766 54.5247 45.8021 55.8431 46.7589C57.4772 47.9448 58.8082 49.4065 59.4361 51.4106C60.7465 55.5927 59.8736 60.5395 55.7546 63.5942C54.19 64.7546 52.434 65.4338 50.5789 65.8773C49.9425 66.0294 49.9443 66.0373 49.9443 66.7177C49.9443 68.3502 49.9443 69.9826 49.9443 71.6151C49.9441 71.733 49.9441 71.8505 49.9441 72Z" fill="#313131"/>
</svg>
