<svg width="238" height="31" viewBox="0 0 238 31" fill="none" xmlns="http://www.w3.org/2000/svg">
<path d="M8.8125 13.9062C8.8125 15.0625 8.41667 15.9531 7.625 16.5781C6.83854 17.1979 5.71094 17.5078 4.24219 17.5078H2.89844V22H1.57031V10.5781H4.53125C7.38542 10.5781 8.8125 11.6875 8.8125 13.9062ZM2.89844 16.3672H4.09375C5.27083 16.3672 6.1224 16.1771 6.64844 15.7969C7.17448 15.4167 7.4375 14.8073 7.4375 13.9688C7.4375 13.2135 7.1901 12.651 6.69531 12.2812C6.20052 11.9115 5.42969 11.7266 4.38281 11.7266H2.89844V16.3672ZM18.4062 17.7109C18.4062 19.1068 18.0547 20.1979 17.3516 20.9844C16.6484 21.7656 15.6771 22.1562 14.4375 22.1562C13.6719 22.1562 12.9922 21.9766 12.3984 21.6172C11.8047 21.2578 11.3464 20.7422 11.0234 20.0703C10.7005 19.3984 10.5391 18.612 10.5391 17.7109C10.5391 16.3151 10.888 15.2292 11.5859 14.4531C12.2839 13.6719 13.2526 13.2812 14.4922 13.2812C15.6901 13.2812 16.6406 13.6797 17.3438 14.4766C18.0521 15.2734 18.4062 16.3516 18.4062 17.7109ZM11.8828 17.7109C11.8828 18.8047 12.1016 19.638 12.5391 20.2109C12.9766 20.7839 13.6198 21.0703 14.4688 21.0703C15.3177 21.0703 15.9609 20.7865 16.3984 20.2188C16.8411 19.6458 17.0625 18.8099 17.0625 17.7109C17.0625 16.6224 16.8411 15.7969 16.3984 15.2344C15.9609 14.6667 15.3125 14.3828 14.4531 14.3828C13.6042 14.3828 12.9635 14.6615 12.5312 15.2188C12.099 15.776 11.8828 16.6068 11.8828 17.7109ZM27.3516 22L25.7812 16.9766C25.6823 16.6693 25.4974 15.9714 25.2266 14.8828H25.1641C24.9557 15.7943 24.7734 16.4974 24.6172 16.9922L23 22H21.5L19.1641 13.4375H20.5234C21.0755 15.5885 21.4948 17.2266 21.7812 18.3516C22.0729 19.4766 22.2396 20.2344 22.2812 20.625H22.3438C22.401 20.3281 22.4922 19.9453 22.6172 19.4766C22.7474 19.0026 22.8594 18.6276 22.9531 18.3516L24.5234 13.4375H25.9297L27.4609 18.3516C27.7526 19.2474 27.9505 20 28.0547 20.6094H28.1172C28.138 20.4219 28.1927 20.1328 28.2812 19.7422C28.375 19.3516 28.9193 17.25 29.9141 13.4375H31.2578L28.8906 22H27.3516ZM36.4297 22.1562C35.1641 22.1562 34.1641 21.7708 33.4297 21C32.7005 20.2292 32.3359 19.1589 32.3359 17.7891C32.3359 16.4089 32.6745 15.3125 33.3516 14.5C34.0339 13.6875 34.9479 13.2812 36.0938 13.2812C37.1667 13.2812 38.0156 13.6354 38.6406 14.3438C39.2656 15.0469 39.5781 15.9766 39.5781 17.1328V17.9531H33.6797C33.7057 18.9583 33.9583 19.7214 34.4375 20.2422C34.9219 20.763 35.6016 21.0234 36.4766 21.0234C37.3984 21.0234 38.3099 20.8307 39.2109 20.4453V21.6016C38.7526 21.7995 38.3177 21.9401 37.9062 22.0234C37.5 22.112 37.0078 22.1562 36.4297 22.1562ZM36.0781 14.3672C35.3906 14.3672 34.8411 14.5911 34.4297 15.0391C34.0234 15.487 33.7839 16.1068 33.7109 16.8984H38.1875C38.1875 16.0807 38.0052 15.4557 37.6406 15.0234C37.276 14.5859 36.7552 14.3672 36.0781 14.3672ZM45.7031 13.2812C46.0833 13.2812 46.4245 13.3125 46.7266 13.375L46.5469 14.5781C46.1927 14.5 45.8802 14.4609 45.6094 14.4609C44.9167 14.4609 44.3229 14.7422 43.8281 15.3047C43.3385 15.8672 43.0938 16.5677 43.0938 17.4062V22H41.7969V13.4375H42.8672L43.0156 15.0234H43.0781C43.3958 14.4661 43.7786 14.0365 44.2266 13.7344C44.6745 13.4323 45.1667 13.2812 45.7031 13.2812ZM51.6172 22.1562C50.3516 22.1562 49.3516 21.7708 48.6172 21C47.888 20.2292 47.5234 19.1589 47.5234 17.7891C47.5234 16.4089 47.862 15.3125 48.5391 14.5C49.2214 13.6875 50.1354 13.2812 51.2812 13.2812C52.3542 13.2812 53.2031 13.6354 53.8281 14.3438C54.4531 15.0469 54.7656 15.9766 54.7656 17.1328V17.9531H48.8672C48.8932 18.9583 49.1458 19.7214 49.625 20.2422C50.1094 20.763 50.7891 21.0234 51.6641 21.0234C52.5859 21.0234 53.4974 20.8307 54.3984 20.4453V21.6016C53.9401 21.7995 53.5052 21.9401 53.0938 22.0234C52.6875 22.112 52.1953 22.1562 51.6172 22.1562ZM51.2656 14.3672C50.5781 14.3672 50.0286 14.5911 49.6172 15.0391C49.2109 15.487 48.9714 16.1068 48.8984 16.8984H53.375C53.375 16.0807 53.1927 15.4557 52.8281 15.0234C52.4635 14.5859 51.9427 14.3672 51.2656 14.3672ZM62.8125 20.8516H62.7422C62.1432 21.7214 61.2474 22.1562 60.0547 22.1562C58.9349 22.1562 58.0625 21.7734 57.4375 21.0078C56.8177 20.2422 56.5078 19.1536 56.5078 17.7422C56.5078 16.3307 56.8203 15.2344 57.4453 14.4531C58.0703 13.6719 58.9401 13.2812 60.0547 13.2812C61.2161 13.2812 62.1068 13.7031 62.7266 14.5469H62.8281L62.7734 13.9297L62.7422 13.3281V9.84375H64.0391V22H62.9844L62.8125 20.8516ZM60.2188 21.0703C61.1042 21.0703 61.7448 20.8307 62.1406 20.3516C62.5417 19.8672 62.7422 19.0885 62.7422 18.0156V17.7422C62.7422 16.5286 62.5391 15.6641 62.1328 15.1484C61.7318 14.6276 61.0885 14.3672 60.2031 14.3672C59.4427 14.3672 58.8594 14.6641 58.4531 15.2578C58.0521 15.8464 57.8516 16.6797 57.8516 17.7578C57.8516 18.8516 58.0521 19.6771 58.4531 20.2344C58.8542 20.7917 59.4427 21.0703 60.2188 21.0703ZM74.9375 13.2969C76.0625 13.2969 76.9349 13.6823 77.5547 14.4531C78.1797 15.2188 78.4922 16.3047 78.4922 17.7109C78.4922 19.1172 78.1771 20.2109 77.5469 20.9922C76.9219 21.7682 76.0521 22.1562 74.9375 22.1562C74.3802 22.1562 73.8698 22.0547 73.4062 21.8516C72.9479 21.6432 72.5625 21.3255 72.25 20.8984H72.1562L71.8828 22H70.9531V9.84375H72.25V12.7969C72.25 13.4583 72.2292 14.0521 72.1875 14.5781H72.25C72.8542 13.724 73.75 13.2969 74.9375 13.2969ZM74.75 14.3828C73.8646 14.3828 73.2266 14.638 72.8359 15.1484C72.4453 15.6536 72.25 16.5078 72.25 17.7109C72.25 18.9141 72.4505 19.776 72.8516 20.2969C73.2526 20.8125 73.8958 21.0703 74.7812 21.0703C75.5781 21.0703 76.1719 20.7812 76.5625 20.2031C76.9531 19.6198 77.1484 18.7839 77.1484 17.6953C77.1484 16.5807 76.9531 15.75 76.5625 15.2031C76.1719 14.6562 75.5677 14.3828 74.75 14.3828ZM79.0781 13.4375H80.4688L82.3438 18.3203C82.7552 19.4349 83.0104 20.2396 83.1094 20.7344H83.1719C83.2396 20.4688 83.3802 20.0156 83.5938 19.375C83.8125 18.7292 84.5208 16.75 85.7188 13.4375H87.1094L83.4297 23.1875C83.0651 24.151 82.638 24.8333 82.1484 25.2344C81.6641 25.6406 81.0677 25.8438 80.3594 25.8438C79.9635 25.8438 79.5729 25.7995 79.1875 25.7109V24.6719C79.474 24.7344 79.7943 24.7656 80.1484 24.7656C81.0391 24.7656 81.6745 24.2656 82.0547 23.2656L82.5312 22.0469L79.0781 13.4375Z" fill="#333333"/>
<path fill-rule="evenodd" clip-rule="evenodd" d="M120.984 16C120.984 21.5041 116.561 25.9661 111.105 25.9661C108.881 25.9661 106.829 25.2247 105.177 23.9736C105.142 23.9469 105.099 23.9322 105.055 23.9322H102.625C102.452 23.9322 102.361 24.1375 102.48 24.2645C104.648 26.5654 107.71 28 111.105 28C117.674 28 123 22.6274 123 16C123 9.37258 117.674 4 111.105 4C108.026 4 105.22 5.18026 103.107 7.11679C102.974 7.2391 103.062 7.45763 103.242 7.45763H105.957C105.994 7.45763 106.03 7.4475 106.062 7.42859C107.538 6.54269 109.262 6.0339 111.105 6.0339C116.561 6.0339 120.984 10.4959 120.984 16ZM116.268 18.6049L116.372 20.452C116.383 21.0445 116.509 21.5266 116.75 21.8983H114.359C114.152 21.5498 114.043 21.0561 114.032 20.4172L113.98 19.058C113.946 18.3029 113.774 17.7801 113.464 17.4897C113.166 17.1877 112.684 17.0367 112.019 17.0367H108.992V21.8983H106.669V9.49153H112.226C113.59 9.49153 114.651 9.80518 115.408 10.4325C116.165 11.0598 116.544 11.9136 116.544 12.994C116.544 14.481 115.861 15.4684 114.496 15.9563C115.116 16.1538 115.557 16.4674 115.821 16.8973C116.096 17.3155 116.245 17.8847 116.268 18.6049ZM108.992 11.4257V15.1896H112.088C112.742 15.1896 113.246 15.0269 113.602 14.7017C113.969 14.3648 114.152 13.8827 114.152 13.2554C114.152 12.6629 113.963 12.2099 113.585 11.8962C113.218 11.5826 112.69 11.4257 112.002 11.4257H108.992ZM104.048 9.49153C104.271 9.49153 104.452 9.67365 104.452 9.89831V11.1932C104.452 11.4179 104.271 11.6 104.048 11.6H98.4032C98.1805 11.6 98 11.4179 98 11.1932V9.89831C98 9.67365 98.1805 9.49153 98.4032 9.49153H104.048ZM104.452 15.3102C104.452 15.0855 104.271 14.9034 104.048 14.9034H98.4032C98.1805 14.9034 98 15.0855 98 15.3102V16.5179C98 16.7426 98.1805 16.9247 98.4032 16.9247H104.048C104.271 16.9247 104.452 16.7426 104.452 16.5179V15.3102ZM104.452 20.1966C104.452 19.972 104.271 19.7899 104.048 19.7899H98.4032C98.1805 19.7899 98 19.972 98 20.1966V21.4915C98 21.7162 98.1805 21.8983 98.4032 21.8983H104.048C104.271 21.8983 104.452 21.7162 104.452 21.4915V20.1966ZM129.741 22H136.802V20.6832H131.214V16.0225H136.464V14.723H131.214V10.6427H136.802V9.33461H129.741V22ZM139.401 22H140.839V8.52029H139.401V22ZM143.888 22H145.326V12.5053H143.888V22ZM144.009 9.21333C143.848 9.36349 143.767 9.60317 143.767 9.93236C143.767 10.2558 143.848 10.4984 144.009 10.6601C144.171 10.816 144.373 10.894 144.616 10.894C144.847 10.894 145.046 10.816 145.213 10.6601C145.381 10.4984 145.465 10.2558 145.465 9.93236C145.465 9.60894 145.381 9.36927 145.213 9.21333C145.046 9.0574 144.847 8.97943 144.616 8.97943C144.373 8.97943 144.171 9.0574 144.009 9.21333ZM152.179 20.9344C151.942 20.9691 151.696 20.9864 151.442 20.9864C150.969 20.9864 150.596 20.8334 150.325 20.5273C150.053 20.2212 149.918 19.7823 149.918 19.2105V13.6228H152.672V12.5053H149.918V10.3049H149.086L148.479 12.332L147.119 12.9298V13.6228H148.479V19.2711C148.479 21.2059 149.398 22.1733 151.234 22.1733C151.477 22.1733 151.748 22.1473 152.049 22.0953C152.355 22.0491 152.586 21.9884 152.742 21.9134V20.8132C152.603 20.8536 152.415 20.894 152.179 20.9344ZM155.332 20.8911C156.146 21.7459 157.255 22.1733 158.659 22.1733C159.3 22.1733 159.845 22.1242 160.296 22.026C160.752 21.9336 161.234 21.7776 161.743 21.5582V20.2761C160.743 20.7034 159.733 20.9171 158.711 20.9171C157.74 20.9171 156.987 20.6283 156.449 20.0508C155.918 19.4733 155.638 18.6272 155.609 17.5125H162.15V16.6029C162.15 15.3208 161.803 14.2899 161.11 13.5102C160.417 12.7248 159.476 12.332 158.286 12.332C157.015 12.332 156.002 12.7825 155.245 13.6835C154.495 14.5844 154.119 15.8001 154.119 17.3306C154.119 18.8495 154.523 20.0364 155.332 20.8911ZM156.441 14.2812C156.897 13.7845 157.506 13.5362 158.269 13.5362C159.02 13.5362 159.597 13.7788 160.001 14.2639C160.406 14.7432 160.608 15.4363 160.608 16.343H155.644C155.725 15.4652 155.99 14.7779 156.441 14.2812ZM170.908 22V16.7329H173.55L176.617 22H178.358L174.919 16.3084C176.617 15.7193 177.466 14.5873 177.466 12.9125C177.466 11.717 177.094 10.8218 176.349 10.2269C175.609 9.63205 174.463 9.33461 172.909 9.33461H169.435V22H170.908ZM172.927 15.4681H170.908V10.6254H172.823C173.914 10.6254 174.705 10.8102 175.196 11.1798C175.693 11.5495 175.941 12.153 175.941 12.9904C175.941 13.8163 175.699 14.4372 175.214 14.853C174.729 15.263 173.966 15.4681 172.927 15.4681ZM180.871 20.8911C181.685 21.7459 182.794 22.1733 184.197 22.1733C184.838 22.1733 185.384 22.1242 185.835 22.026C186.291 21.9336 186.773 21.7776 187.281 21.5582V20.2761C186.282 20.7034 185.271 20.9171 184.249 20.9171C183.279 20.9171 182.525 20.6283 181.988 20.0508C181.457 19.4733 181.177 18.6272 181.148 17.5125H187.688V16.6029C187.688 15.3208 187.342 14.2899 186.649 13.5102C185.956 12.7248 185.014 12.332 183.825 12.332C182.554 12.332 181.541 12.7825 180.784 13.6835C180.033 14.5844 179.658 15.8001 179.658 17.3306C179.658 18.8495 180.062 20.0364 180.871 20.8911ZM181.979 14.2812C182.436 13.7845 183.045 13.5362 183.807 13.5362C184.558 13.5362 185.136 13.7788 185.54 14.2639C185.944 14.7432 186.146 15.4363 186.146 16.343H181.182C181.263 15.4652 181.529 14.7779 181.979 14.2812ZM195.797 16.4297L197.538 22H199.245L201.87 12.5053H200.38C199.277 16.7329 198.673 19.0632 198.569 19.4964C198.471 19.9295 198.41 20.2501 198.387 20.458H198.318C198.203 19.7823 197.983 18.9477 197.66 17.9544L195.962 12.5053H194.402L192.661 17.9544C192.557 18.2604 192.433 18.6763 192.289 19.2018C192.15 19.7216 192.049 20.1461 191.985 20.4753H191.916C191.87 20.0422 191.685 19.2018 191.362 17.9544C191.044 16.7069 190.579 14.8905 189.967 12.5053H188.459L191.05 22H192.713L194.506 16.447C194.68 15.8983 194.882 15.1186 195.113 14.108H195.182C195.482 15.315 195.687 16.0889 195.797 16.4297ZM209.147 20.6486L209.433 22H210.498V15.52C210.498 14.4112 210.224 13.6055 209.675 13.103C209.132 12.6006 208.295 12.3494 207.163 12.3494C206.603 12.3494 206.043 12.4215 205.482 12.5659C204.928 12.7103 204.417 12.9096 203.949 13.1637L204.391 14.2639C205.39 13.7788 206.285 13.5362 207.076 13.5362C207.781 13.5362 208.292 13.7152 208.61 14.0733C208.933 14.4256 209.095 14.9743 209.095 15.7193V16.3084L207.484 16.3604C204.417 16.4528 202.883 17.4577 202.883 19.3751C202.883 20.2703 203.149 20.9604 203.68 21.4456C204.218 21.9307 204.957 22.1733 205.898 22.1733C206.603 22.1733 207.189 22.0693 207.657 21.8614C208.13 21.6477 208.604 21.2434 209.078 20.6486H209.147ZM208.289 20.2501C207.781 20.741 207.079 20.9864 206.184 20.9864C205.618 20.9864 205.176 20.8507 204.859 20.5793C204.547 20.3078 204.391 19.9122 204.391 19.3924C204.391 18.7283 204.642 18.2402 205.145 17.9284C205.653 17.6107 206.479 17.4317 207.622 17.3913L209.06 17.3306V18.1883C209.06 19.0719 208.803 19.7592 208.289 20.2501ZM218.936 12.436C218.601 12.3667 218.223 12.332 217.801 12.332C217.206 12.332 216.661 12.4995 216.164 12.8345C215.667 13.1695 215.243 13.6459 214.89 14.2639H214.821L214.657 12.5053H213.47V22H214.908V16.9061C214.908 15.9763 215.179 15.1995 215.722 14.5758C216.271 13.952 216.929 13.6402 217.697 13.6402C217.998 13.6402 218.344 13.6835 218.737 13.7701L218.936 12.436ZM226.733 20.7265H226.811L227.001 22H228.171V8.52029H226.733V12.384L226.767 13.0511L226.828 13.7354H226.715C226.028 12.7998 225.041 12.332 223.753 12.332C222.517 12.332 221.552 12.7652 220.859 13.6315C220.166 14.4978 219.82 15.7135 219.82 17.2786C219.82 18.8438 220.163 20.0508 220.851 20.8998C221.544 21.7488 222.511 22.1733 223.753 22.1733C225.075 22.1733 226.069 21.691 226.733 20.7265ZM226.066 20.1721C225.627 20.7034 224.916 20.9691 223.935 20.9691C223.074 20.9691 222.422 20.6601 221.977 20.0422C221.532 19.4242 221.31 18.5088 221.31 17.296C221.31 16.1005 221.532 15.1764 221.977 14.5238C222.427 13.8654 223.074 13.5362 223.917 13.5362C224.899 13.5362 225.612 13.825 226.057 14.4025C226.508 14.9743 226.733 15.933 226.733 17.2786V17.5818C226.733 18.7716 226.51 19.635 226.066 20.1721ZM236.366 21.4542C237.025 20.9749 237.354 20.2934 237.354 19.4097C237.354 18.7802 237.154 18.2576 236.756 17.8417C236.363 17.4259 235.604 17.013 234.478 16.6029C233.658 16.2968 233.103 16.0629 232.814 15.9012C232.526 15.7395 232.315 15.5691 232.182 15.3901C232.055 15.2111 231.991 14.9945 231.991 14.7404C231.991 14.365 232.165 14.0704 232.511 13.8567C232.858 13.643 233.372 13.5362 234.053 13.5362C234.827 13.5362 235.69 13.7326 236.643 14.1253L237.154 12.9558C236.178 12.5399 235.179 12.332 234.157 12.332C233.06 12.332 232.196 12.5573 231.567 13.0077C230.937 13.4525 230.623 14.0618 230.623 14.8357C230.623 15.2688 230.712 15.6413 230.891 15.9532C231.076 16.2651 231.353 16.5452 231.723 16.7935C232.098 17.0361 232.728 17.322 233.611 17.6511C234.541 18.0092 235.165 18.3211 235.483 18.5868C235.806 18.8466 235.968 19.1614 235.968 19.531C235.968 20.0219 235.766 20.3887 235.361 20.6312C234.957 20.868 234.379 20.9864 233.629 20.9864C233.143 20.9864 232.638 20.92 232.113 20.7872C231.593 20.6543 231.105 20.4724 230.649 20.2414V21.5755C231.353 21.974 232.335 22.1733 233.594 22.1733C234.784 22.1733 235.708 21.9336 236.366 21.4542Z" fill="url(#paint0_linear)"/>
<defs>
<linearGradient id="paint0_linear" x1="98" y1="16.6316" x2="232.255" y2="16.6316" gradientUnits="userSpaceOnUse">
<stop offset="0.0837192" stop-color="#2075DF"/>
<stop offset="1" stop-color="#23B2DC"/>
</linearGradient>
</defs>
</svg>
