<svg width="717" height="662" viewBox="0 0 717 662" fill="none" xmlns="http://www.w3.org/2000/svg">
<g clip-path="url(#clip0)">
<path d="M239.509 14.8754L235.274 17.3189C235.265 17.3281 235.247 17.3372 235.238 17.3372L235.228 17.3464C233.309 18.4671 232.133 20.8462 232.133 24.2266V277.186C232.133 283.974 236.909 292.251 242.798 295.65L596.562 499.878C599.474 501.559 602.111 501.724 604.049 500.65V500.659L604.113 500.622C604.113 500.622 604.113 500.622 604.113 500.613L608.348 498.17V498.16C610.295 497.058 611.498 494.67 611.498 491.253V238.293C611.489 231.505 606.713 223.228 600.824 219.83L247.078 15.6103C244.185 13.9385 241.567 13.764 239.647 14.8111L239.638 14.802L239.546 14.8571C239.537 14.8571 239.518 14.8663 239.509 14.8754Z" fill="#FF0000"/>
<path opacity="0.2" d="M573.665 254.23C570.394 252.337 567.73 253.871 567.73 257.647L567.74 369.108C567.74 372.883 570.385 377.485 573.665 379.377L607.239 398.76V273.621L573.665 254.23Z" fill="black"/>
<path opacity="0.3" d="M600.835 219.848L247.079 15.6103C244.185 13.9385 241.567 13.764 239.648 14.8111L239.638 14.802L239.547 14.8571C239.537 14.8571 239.519 14.8663 239.51 14.8754L235.303 17.3097C237.232 16.2258 239.877 16.3911 242.808 18.0813L596.572 222.328C602.47 225.736 607.246 234.003 607.237 240.792V493.751C607.237 497.141 606.043 499.52 604.123 500.641L608.349 498.197V498.188C610.296 497.086 611.499 494.697 611.499 491.28V238.321C611.499 231.523 606.723 223.256 600.835 219.848Z" fill="black"/>
<path opacity="0.2" d="M596.564 490.5L242.809 286.262C239.429 284.305 236.416 284.388 234.459 286.097C236.416 290.083 239.41 293.684 242.809 295.65L596.564 499.878C599.954 501.835 602.967 501.752 604.914 500.044C602.967 496.066 599.972 492.465 596.564 490.5Z" fill="black"/>
<path d="M601.323 502.477C599.661 502.477 597.851 501.935 595.996 500.87L242.24 296.632C236.04 293.05 230.997 284.323 231.006 277.176V24.2263C231.006 20.552 232.292 17.7687 234.634 16.3816C234.653 16.3633 234.68 16.3541 234.699 16.3449C234.708 16.3449 234.708 16.3357 234.717 16.3357L238.942 13.9015C238.952 13.8923 238.961 13.8923 238.97 13.8831L239.062 13.828C239.135 13.7821 239.218 13.7453 239.301 13.7178C241.634 12.542 244.592 12.8635 247.66 14.6363L601.415 218.874C607.607 222.447 612.65 231.174 612.659 238.32V491.28C612.65 494.973 611.354 497.756 609.003 499.134C608.975 499.152 608.957 499.161 608.929 499.18L604.768 501.586C604.722 501.614 604.676 501.641 604.63 501.669C604.594 501.687 604.557 501.706 604.511 501.724C603.537 502.22 602.462 502.477 601.323 502.477ZM235.856 18.3015C235.847 18.3107 235.828 18.3199 235.819 18.329C234.184 19.2844 233.284 21.3787 233.284 24.2263V277.186C233.284 283.607 237.803 291.451 243.379 294.666L597.135 498.904C599.578 500.319 601.838 500.585 603.491 499.666C603.528 499.648 603.574 499.63 603.611 499.611L607.708 497.241C607.735 497.223 607.754 497.205 607.781 497.195C609.435 496.249 610.353 494.155 610.353 491.28V238.32C610.344 231.9 605.815 224.064 600.249 220.849L246.512 16.6021C244.077 15.1967 241.845 14.9211 240.201 15.8121C240.155 15.8397 240.109 15.8581 240.063 15.8764L235.856 18.3015Z" fill="#E40303"/>
<path d="M596.562 475.269L242.807 271.022C240.455 269.663 238.535 266.356 238.535 263.637V27.9191C238.535 25.2001 240.455 24.0978 242.807 25.4573L596.562 229.695C598.914 231.055 600.834 234.371 600.834 237.09V472.816C600.834 475.517 598.914 476.629 596.562 475.269Z" fill="white"/>
<path d="M573.665 254.23C570.394 252.337 567.73 253.871 567.73 257.647L567.74 369.108C567.74 372.883 570.385 377.485 573.665 379.377L600.827 395.058V269.919L573.665 254.23Z" fill="#FF6A6A"/>
<path d="M255.604 313.278L257.744 314.5L264.551 310.568V303.183L255.604 308.345C253.252 309.705 253.252 311.909 255.604 313.278Z" fill="#B30000"/>
<path opacity="0.2" d="M255.604 313.278L257.744 314.5L264.551 310.568V303.183L255.604 308.345C253.252 309.705 253.252 311.909 255.604 313.278Z" fill="black"/>
<path d="M262.218 322.059C262.953 322.472 263.973 322.408 265.093 321.765L281.086 312.524V303.072L275.345 299.756L259.334 308.997C257.074 310.301 255.246 313.47 255.246 316.079C255.246 317.319 255.669 318.192 256.348 318.642L256.339 318.66L262.218 322.059Z" fill="#7185A3"/>
<path d="M262.218 322.059C262.953 322.472 263.973 322.408 265.093 321.765L281.086 312.524V303.072L275.345 299.756L259.334 308.997C257.074 310.301 255.246 313.47 255.246 316.079C255.246 317.319 255.669 318.192 256.348 318.642L256.339 318.66L262.218 322.059Z" fill="#B7DAFE"/>
<path opacity="0.5" d="M281.086 303.073L265.084 312.314C262.824 313.628 260.987 316.788 260.996 319.396C260.996 322.005 262.833 323.062 265.093 321.757L281.086 312.525V303.073Z" fill="black"/>
<path d="M546.907 481.441L549.038 482.681L555.845 478.75V471.364L546.889 476.527C544.537 477.877 544.546 480.091 546.907 481.441Z" fill="#B30000"/>
<path opacity="0.2" d="M546.907 481.441L549.038 482.681L555.845 478.75V471.364L546.889 476.527C544.537 477.877 544.546 480.091 546.907 481.441Z" fill="black"/>
<path d="M553.503 490.195C554.238 490.608 555.249 490.544 556.378 489.901L572.371 480.66V471.217L566.63 467.892L550.619 477.133C548.368 478.437 546.531 481.606 546.531 484.215C546.531 485.464 546.963 486.337 547.634 486.787L547.624 486.805L553.503 490.195Z" fill="#7185A3"/>
<path d="M553.503 490.195C554.238 490.608 555.249 490.544 556.378 489.901L572.371 480.66V471.217L566.63 467.892L550.619 477.133C548.368 478.437 546.531 481.606 546.531 484.215C546.531 485.464 546.963 486.337 547.634 486.787L547.624 486.805L553.503 490.195Z" fill="white"/>
<path d="M572.38 471.217L556.369 480.458C554.118 481.762 552.281 484.931 552.281 487.54C552.281 490.149 554.118 491.205 556.378 489.901L572.371 480.66L572.38 471.217Z" fill="#FF6A6A"/>
<path d="M597.659 498.409C597.659 498.373 597.659 498.336 597.65 498.299C597.604 498.051 597.54 497.803 597.466 497.555C597.457 497.528 597.448 497.5 597.439 497.472C597.356 497.224 597.246 496.976 597.126 496.738C597.117 496.71 597.108 496.682 597.099 496.655C596.979 496.434 596.842 496.214 596.695 495.994C596.667 495.948 596.649 495.902 596.612 495.856C596.456 495.635 596.281 495.424 596.098 495.213C596.061 495.167 596.033 495.121 595.987 495.084C595.298 494.322 594.398 493.614 593.296 492.981L568.283 478.54L559.345 483.703C556.984 485.062 553.163 485.062 550.811 483.694L549.039 482.674L546.907 481.434C544.547 480.074 544.538 477.87 546.889 476.51L549.443 475.041L555.845 471.348L277 310.366L268.053 315.529C265.702 316.888 261.88 316.888 259.52 315.52L257.747 314.491L255.606 313.269C253.246 311.9 253.246 309.705 255.606 308.336L258.151 306.866L264.553 303.174L239.54 288.734C233.643 285.335 224.099 285.335 218.22 288.734L5.54982 411.521C5.18239 411.732 4.84251 411.952 4.52101 412.173C2.28885 413.753 1.159 415.682 1.14062 417.611V417.638C1.14062 417.648 1.14062 417.657 1.14062 417.666V424.914H1.16818C1.11307 427.182 2.55524 429.47 5.56819 431.197L359.314 635.444C365.212 638.842 374.765 638.842 380.644 635.444L593.314 512.684C596.226 511.003 597.687 508.799 597.714 506.594H597.724V506.53C597.724 506.53 597.724 506.53 597.724 506.521V499.135V499.126C597.724 498.887 597.696 498.648 597.659 498.409Z" fill="#FF0000"/>
<path opacity="0.3" d="M597.667 498.563C597.952 500.979 596.5 503.45 593.304 505.296L380.643 628.074C374.764 631.473 365.21 631.473 359.313 628.065L5.56682 423.827C2.61817 422.128 1.14844 419.896 1.14844 417.673V424.92H1.17599C1.12088 427.189 2.56306 429.477 5.57601 431.204L359.322 635.451C365.22 638.849 374.773 638.849 380.652 635.451L593.313 512.682C596.225 511.001 597.685 508.796 597.713 506.592H597.722V506.527C597.722 506.527 597.722 506.527 597.722 506.518V499.133V499.124C597.722 498.94 597.695 498.747 597.667 498.563Z" fill="black"/>
<path d="M369.987 639.136C365.918 639.136 361.848 638.245 358.744 636.454L4.99709 432.207C1.81879 430.379 0.0643008 427.88 0.0275575 425.152C0.00918583 425.078 0 425.005 0 424.931V417.684C0 417.647 0 417.61 0.00918583 417.574C0.0459292 415.231 1.41462 412.981 3.86724 411.245C4.2163 410.997 4.59292 410.758 4.98791 410.528L217.649 287.75C223.831 284.177 233.908 284.177 240.118 287.75L265.131 302.19C265.48 302.392 265.7 302.769 265.7 303.182C265.7 303.587 265.48 303.963 265.131 304.175L256.184 309.337C255.421 309.778 254.99 310.311 254.99 310.807C254.99 311.303 255.43 311.845 256.184 312.286L260.088 314.536C262.09 315.703 265.48 315.703 267.482 314.545L276.429 309.383C276.778 309.181 277.219 309.181 277.568 309.383L556.413 470.374C556.763 470.576 556.983 470.952 556.983 471.366C556.983 471.77 556.763 472.147 556.413 472.358L547.457 477.52C546.704 477.952 546.272 478.494 546.272 478.99C546.272 479.486 546.713 480.028 547.476 480.469L549.515 481.654C549.552 481.672 549.579 481.682 549.607 481.7L551.38 482.72C553.373 483.886 556.763 483.886 558.774 482.729L567.712 477.566C568.061 477.364 568.502 477.364 568.851 477.566L593.864 492.006C595.049 492.686 596.041 493.476 596.822 494.33C596.868 494.376 596.914 494.441 596.969 494.505C597.153 494.716 597.364 494.964 597.538 495.212C597.594 495.295 597.621 495.35 597.658 495.405C597.805 495.626 597.97 495.883 598.108 496.14C598.126 496.177 598.154 496.241 598.172 496.287C598.31 496.572 598.429 496.847 598.521 497.114C598.531 497.141 598.549 497.206 598.558 497.233C598.65 497.509 598.723 497.803 598.779 498.097C598.788 498.133 598.797 498.225 598.797 498.271C598.834 498.501 598.87 498.795 598.87 499.116V506.52C598.87 506.584 598.861 506.649 598.852 506.713C598.769 509.395 597.006 511.857 593.882 513.657L381.212 636.454C378.116 638.245 374.056 639.136 369.987 639.136ZM2.28727 424.702C2.30564 424.784 2.31483 424.867 2.31483 424.959C2.2689 426.906 3.61922 428.78 6.14532 430.232L359.892 634.479C365.468 637.694 374.516 637.694 380.082 634.479L592.743 511.701C595.187 510.295 596.546 508.477 596.574 506.584C596.574 506.529 596.583 506.474 596.583 506.419V499.144C596.583 498.942 596.565 498.767 596.537 498.583C596.537 498.574 596.537 498.565 596.537 498.556C596.537 498.528 596.528 498.455 596.528 498.436C596.5 498.317 596.454 498.115 596.39 497.913C596.381 497.894 596.363 497.83 596.363 497.803C596.307 497.646 596.216 497.444 596.124 497.251C596.105 497.224 596.087 497.178 596.078 497.141C595.986 496.976 595.876 496.811 595.766 496.645C595.747 496.618 595.71 496.563 595.701 496.535C595.573 496.342 595.417 496.158 595.26 495.984C595.242 495.965 595.205 495.91 595.187 495.892C594.544 495.185 593.726 494.551 592.753 493.981L568.318 479.872L559.95 484.704C557.222 486.274 552.969 486.274 550.268 484.694L548.587 483.73C548.55 483.712 548.523 483.693 548.486 483.675L546.355 482.435C544.867 481.58 544.013 480.322 544.013 478.981C544.013 477.649 544.858 476.39 546.346 475.536L553.584 471.357L276.999 311.689L268.621 316.52C265.911 318.091 261.658 318.082 258.949 316.511L255.045 314.261C253.538 313.388 252.702 312.157 252.702 310.807C252.702 309.456 253.529 308.225 255.035 307.362L262.274 303.182L238.979 289.725C233.403 286.51 224.355 286.51 218.797 289.725L6.11776 412.503C5.78707 412.696 5.47476 412.889 5.18081 413.1C3.32527 414.414 2.29646 416.012 2.27809 417.62C2.27809 417.647 2.27809 417.675 2.27809 417.693C2.27809 417.702 2.27809 417.702 2.27809 417.711V424.702H2.28727Z" fill="#E40303"/>
<path opacity="0.3" d="M453.937 567.632C450.401 569.671 444.678 569.671 441.141 567.632L110.249 376.585C106.713 374.546 106.713 371.23 110.24 369.2L216.805 307.673C220.341 305.634 226.073 305.634 229.601 307.682L560.493 498.72C564.02 500.759 564.038 504.066 560.502 506.105L453.937 567.632Z" fill="black"/>
<path d="M145.092 384.219C142.731 385.578 138.919 385.578 136.558 384.219L120.906 375.18C118.554 373.82 118.545 371.606 120.906 370.256L132.269 363.688C134.62 362.329 138.442 362.329 140.802 363.697L156.455 372.727C158.807 374.087 158.816 376.291 156.455 377.651L145.092 384.219ZM204.8 377.669C207.161 376.319 207.152 374.105 204.8 372.745L164.97 349.753C162.609 348.385 158.788 348.394 156.437 349.753L145.074 356.312C142.722 357.671 142.722 359.876 145.074 361.236L184.903 384.237C187.264 385.596 191.086 385.596 193.437 384.237L204.8 377.669ZM180.641 391.622C182.993 390.263 182.993 388.049 180.641 386.699L169.26 380.131C166.908 378.771 163.087 378.762 160.726 380.131L149.354 386.689C147.003 388.049 147.003 390.254 149.364 391.613L160.754 398.19C163.106 399.55 166.927 399.559 169.288 398.19L180.641 391.622ZM204.828 405.585C207.179 404.225 207.179 402.021 204.828 400.661L193.446 394.093C191.086 392.734 187.273 392.725 184.913 394.093L173.541 400.652C171.189 402.011 171.198 404.216 173.541 405.576L184.922 412.143C187.273 413.503 191.095 413.512 193.456 412.143L204.828 405.585ZM229.023 419.547C231.375 418.188 231.375 415.983 229.014 414.624L217.633 408.047C215.272 406.687 211.46 406.687 209.099 408.047L197.736 414.605C195.385 415.965 195.385 418.169 197.736 419.529L209.117 426.106C211.469 427.465 215.29 427.475 217.642 426.115L229.023 419.547ZM390.611 512.838C392.963 511.479 392.963 509.274 390.611 507.915L362.75 491.83C360.39 490.462 356.577 490.462 354.226 491.821L342.854 498.38C340.502 499.739 340.502 501.944 342.854 503.304L370.714 519.388C373.066 520.747 376.887 520.747 379.239 519.388L390.611 512.838ZM438.947 512.857C441.298 511.497 441.298 509.293 438.947 507.933L411.086 491.849C408.725 490.489 404.913 490.489 402.553 491.849L391.181 498.417C388.829 499.776 388.829 501.981 391.181 503.34L419.041 519.425C421.393 520.784 425.214 520.784 427.575 519.425L438.947 512.857ZM349.945 489.369C352.297 488 352.297 485.805 349.936 484.445L338.564 477.877C336.203 476.509 332.382 476.518 330.03 477.877L318.658 484.445C316.307 485.805 316.307 488.009 318.658 489.369L330.03 495.937C332.391 497.296 336.213 497.296 338.564 495.946L349.945 489.369ZM325.759 475.397C328.12 474.047 328.111 471.842 325.759 470.483L241.819 422.018C239.467 420.659 235.646 420.659 233.285 422.009L221.922 428.577C219.571 429.927 219.571 432.141 221.932 433.5L305.872 481.956C308.232 483.315 312.054 483.315 314.405 481.965L325.759 475.397ZM259.612 337.123C261.973 335.763 261.963 333.559 259.612 332.208L227.48 313.653C225.119 312.293 221.307 312.284 218.946 313.653L217.532 314.47C215.171 315.83 215.18 318.035 217.541 319.394L249.664 337.949C252.015 339.309 255.836 339.318 258.188 337.949L259.612 337.123ZM283.798 351.094C286.159 349.735 286.15 347.53 283.798 346.171L272.417 339.594C270.065 338.234 266.244 338.234 263.892 339.594L262.469 340.411C260.117 341.78 260.126 343.985 262.478 345.335L273.859 351.912C276.211 353.271 280.032 353.281 282.393 351.912L283.798 351.094ZM307.984 365.057C310.336 363.697 310.336 361.493 307.984 360.133L296.603 353.565C294.252 352.197 290.43 352.197 288.079 353.556L286.655 354.374C284.303 355.733 284.313 357.938 286.664 359.297L298.045 365.874C300.397 367.234 304.218 367.243 306.579 365.884L307.984 365.057ZM332.171 379.019C334.531 377.66 334.522 375.455 332.171 374.096L320.799 367.528C318.429 366.159 314.617 366.168 312.265 367.528L310.841 368.345C308.48 369.705 308.49 371.909 310.85 373.269L322.232 379.846C324.583 381.206 328.405 381.206 330.756 379.846L332.171 379.019ZM356.357 392.991C358.709 391.622 358.709 389.418 356.357 388.058L344.976 381.481C342.624 380.122 338.812 380.122 336.442 381.481L335.018 382.299C332.667 383.658 332.667 385.863 335.018 387.222L346.4 393.79C348.751 395.15 352.572 395.159 354.933 393.799L356.357 392.991ZM380.543 406.944C382.895 405.585 382.895 403.38 380.543 402.021L369.162 395.453C366.811 394.084 362.989 394.093 360.628 395.453L359.214 396.279C356.862 397.639 356.862 399.844 359.214 401.203L370.595 407.771C372.956 409.13 376.768 409.13 379.129 407.771L380.543 406.944ZM404.73 420.916C407.081 419.556 407.081 417.352 404.72 415.983L393.348 409.415C390.988 408.056 387.166 408.056 384.815 409.415L383.4 410.242C381.049 411.601 381.049 413.806 383.4 415.166L394.781 421.743C397.133 423.102 400.945 423.102 403.315 421.743L404.73 420.916ZM428.916 434.878C431.267 433.519 431.267 431.314 428.916 429.955L417.535 423.387C415.183 422.018 411.362 422.027 409.001 423.387L407.586 424.204C405.235 425.564 405.235 427.769 407.605 429.128L418.977 435.696C421.328 437.055 425.15 437.055 427.501 435.696L428.916 434.878ZM453.102 448.841C455.454 447.481 455.445 445.268 453.102 443.917L441.721 437.349C439.36 435.981 435.548 435.981 433.187 437.349L431.773 438.167C429.412 439.526 429.421 441.731 431.782 443.09L443.154 449.668C445.515 451.027 449.336 451.036 451.688 449.668L453.102 448.841ZM477.289 462.803C479.64 461.444 479.64 459.239 477.289 457.88L465.916 451.303C463.556 449.943 459.734 449.943 457.383 451.303L455.959 452.12C453.607 453.48 453.607 455.684 455.968 457.044L467.34 463.621C469.701 464.98 473.513 464.98 475.874 463.621L477.289 462.803ZM501.475 476.766C503.826 475.406 503.826 473.202 501.475 471.842L490.094 465.265C487.733 463.906 483.911 463.906 481.56 465.265L480.145 466.092C477.785 467.451 477.794 469.656 480.145 471.015L491.527 477.592C493.878 478.952 497.699 478.952 500.051 477.592L501.475 476.766ZM525.661 490.728C528.013 489.369 528.013 487.155 525.652 485.805L514.271 479.228C511.919 477.868 508.098 477.868 505.728 479.228L504.322 480.054C501.971 481.414 501.971 483.618 504.322 484.978L515.704 491.546C518.055 492.905 521.886 492.905 524.237 491.555L525.661 490.728ZM549.847 504.691C552.199 503.331 552.19 501.127 549.838 499.758L538.466 493.19C536.115 491.831 532.293 491.821 529.933 493.19L528.518 494.008C526.157 495.367 526.166 497.572 528.518 498.931L539.899 505.499C542.26 506.859 546.072 506.859 548.433 505.499L549.847 504.691ZM228.986 391.631C231.347 390.272 231.338 388.067 228.986 386.708L217.605 380.14C215.244 378.781 211.432 378.771 209.071 380.131L197.699 386.699C195.348 388.058 195.348 390.263 197.709 391.622L209.09 398.19C211.441 399.55 215.263 399.55 217.623 398.19L228.986 391.631ZM253.173 405.603C255.524 404.244 255.524 402.039 253.173 400.68L241.791 394.112C239.431 392.752 235.618 392.752 233.258 394.112L221.895 400.67C219.543 402.03 219.543 404.234 221.895 405.603L233.276 412.171C235.637 413.53 239.449 413.53 241.81 412.171L253.173 405.603ZM277.359 419.566C279.71 418.197 279.71 415.992 277.35 414.642L265.968 408.065C263.617 406.705 259.796 406.705 257.435 408.065L246.072 414.624C243.711 415.983 243.711 418.179 246.072 419.547L257.453 426.115C259.814 427.475 263.635 427.475 265.987 426.115L277.359 419.566ZM301.545 433.528C303.897 432.169 303.897 429.964 301.536 428.604L290.155 422.037C287.803 420.668 283.982 420.668 281.621 422.037L270.258 428.595C267.907 429.955 267.907 432.169 270.267 433.528L281.649 440.096C284 441.455 287.822 441.455 290.182 440.096L301.545 433.528ZM325.722 447.49C328.083 446.131 328.074 443.926 325.722 442.567L314.341 435.99C311.989 434.63 308.168 434.63 305.817 435.99L294.445 442.558C292.084 443.917 292.084 446.122 294.445 447.481L305.826 454.058C308.187 455.409 311.999 455.418 314.359 454.049L325.722 447.49ZM349.918 461.453C352.279 460.093 352.269 457.88 349.918 456.529L338.537 449.952C336.185 448.593 332.364 448.593 330.003 449.952L318.631 456.52C316.279 457.88 316.279 460.084 318.631 461.444L330.012 468.012C332.373 469.371 336.194 469.38 338.546 468.021L349.918 461.453ZM374.104 475.415C376.465 474.056 376.446 471.851 374.095 470.492L362.714 463.924C360.353 462.555 356.532 462.555 354.18 463.924L342.817 470.483C340.466 471.842 340.466 474.038 342.817 475.397L354.198 481.974C356.55 483.334 360.371 483.334 362.732 481.974L374.104 475.415ZM398.29 489.378C400.651 488.018 400.642 485.814 398.29 484.445L386.909 477.877C384.558 476.518 380.736 476.518 378.385 477.877L367.013 484.436C364.652 485.805 364.661 488 367.013 489.369L378.394 495.937C380.745 497.296 384.567 497.305 386.927 495.946L398.29 489.378ZM290.844 399.458C293.195 398.107 293.195 395.894 290.834 394.534L279.453 387.966C277.102 386.607 273.28 386.607 270.92 387.966L259.557 394.525C257.205 395.884 257.196 398.089 259.557 399.458L270.938 406.026C273.299 407.385 277.12 407.385 279.472 406.026L290.844 399.458ZM315.03 413.42C317.382 412.061 317.382 409.856 315.021 408.497L303.649 401.92C301.297 400.56 297.476 400.56 295.124 401.92L283.752 408.478C281.401 409.838 281.391 412.042 283.761 413.411L295.143 419.979C297.494 421.338 301.316 421.338 303.676 419.979L315.03 413.42ZM339.216 427.383C341.568 426.023 341.568 423.819 339.216 422.468L327.835 415.891C325.474 414.532 321.662 414.532 319.301 415.891L307.929 422.441C305.578 423.8 305.578 426.014 307.939 427.374L319.32 433.941C321.671 435.301 325.493 435.301 327.853 433.941L339.216 427.383ZM363.403 441.345C365.763 439.986 365.754 437.781 363.403 436.422L352.012 429.845C349.661 428.485 345.839 428.485 343.488 429.845L332.116 436.403C329.764 437.772 329.764 439.967 332.116 441.336L343.497 447.913C345.848 449.263 349.67 449.273 352.021 447.913L363.403 441.345ZM387.589 455.308C389.94 453.948 389.931 451.744 387.589 450.384L376.208 443.816C373.847 442.457 370.035 442.447 367.674 443.816L356.302 450.375C353.95 451.734 353.95 453.939 356.302 455.298L367.683 461.866C370.026 463.226 373.856 463.235 376.217 461.866L387.589 455.308ZM411.775 469.27C414.127 467.911 414.118 465.706 411.766 464.346L400.385 457.779C398.024 456.419 394.221 456.41 391.86 457.779L380.488 464.337C378.137 465.697 378.137 467.901 380.488 469.27L391.869 475.847C394.221 477.207 398.042 477.207 400.394 475.847L411.775 469.27ZM435.961 483.233C438.313 481.873 438.313 479.668 435.961 478.309L424.58 471.741C422.229 470.372 418.407 470.382 416.047 471.732L404.674 478.3C402.323 479.659 402.323 481.864 404.684 483.223L416.056 489.8C418.407 491.16 422.238 491.16 424.589 489.8L435.961 483.233ZM460.148 497.195C462.499 495.836 462.49 493.631 460.139 492.271L448.757 485.704C446.406 484.344 442.584 484.344 440.224 485.704L428.861 492.271C426.509 493.631 426.509 495.836 428.861 497.195L440.242 503.763C442.594 505.122 446.424 505.132 448.776 503.772L460.148 497.195ZM511.478 526.838C513.83 525.478 513.821 523.274 511.478 521.914L472.944 499.666C470.583 498.307 466.771 498.307 464.419 499.657L453.047 506.225C450.696 507.575 450.696 509.789 453.047 511.148L491.582 533.396C493.933 534.756 497.755 534.756 500.115 533.396L511.478 526.838ZM487.319 540.782C489.68 539.422 489.671 537.218 487.319 535.858L475.938 529.281C473.587 527.922 469.765 527.922 467.414 529.281L456.042 535.84C453.69 537.199 453.681 539.404 456.042 540.763L467.423 547.331C469.774 548.691 473.605 548.7 475.957 547.331L487.319 540.782ZM463.17 554.735C465.521 553.376 465.512 551.171 463.161 549.811L451.779 543.244C449.419 541.884 445.607 541.875 443.255 543.244L431.883 549.802C429.541 551.162 429.541 553.366 431.892 554.726L443.283 561.294C445.634 562.653 449.446 562.653 451.807 561.294L463.17 554.735ZM438.984 540.773C441.335 539.413 441.326 537.209 438.974 535.84L427.593 529.272C425.232 527.912 421.411 527.912 419.069 529.272L407.697 535.84C405.345 537.199 405.345 539.404 407.697 540.763L419.078 547.34C421.429 548.7 425.251 548.709 427.612 547.34L438.984 540.773ZM463.142 526.819C465.494 525.46 465.485 523.246 463.142 521.896L451.761 515.319C449.4 513.959 445.588 513.959 443.218 515.319L431.855 521.877C429.504 523.237 429.495 525.441 431.855 526.801L443.237 533.378C445.588 534.738 449.409 534.747 451.77 533.378L463.142 526.819ZM414.797 526.801C417.149 525.441 417.14 523.237 414.797 521.877L403.407 515.309C401.055 513.95 397.234 513.95 394.882 515.309L383.51 521.868C381.159 523.228 381.159 525.432 383.51 526.792L394.892 533.36C397.243 534.719 401.074 534.719 403.425 533.36L414.797 526.801ZM218.285 357.561C220.646 356.202 220.636 353.997 218.285 352.638L189.12 335.8C186.768 334.44 182.947 334.431 180.595 335.8L169.223 342.359C166.872 343.718 166.863 345.923 169.223 347.282L198.388 364.129C200.74 365.489 204.57 365.489 206.922 364.129L218.285 357.561ZM242.471 371.524C244.823 370.164 244.823 367.96 242.462 366.6L231.081 360.032C228.729 358.673 224.908 358.673 222.556 360.032L211.184 366.6C208.833 367.96 208.833 370.164 211.184 371.524L222.565 378.092C224.917 379.451 228.747 379.451 231.099 378.092L242.471 371.524ZM266.657 385.495C269.018 384.136 269.009 381.931 266.657 380.572L255.276 374.004C252.915 372.644 249.103 372.644 246.742 374.004L235.37 380.563C233.019 381.922 233.019 384.127 235.37 385.486L246.752 392.054C249.103 393.423 252.934 393.423 255.285 392.054L266.657 385.495ZM352.701 407.275C355.062 405.906 355.053 403.702 352.692 402.351L341.311 395.783C338.959 394.415 335.138 394.415 332.786 395.774L321.414 402.342C319.063 403.711 319.072 405.906 321.433 407.266L332.814 413.843C335.165 415.202 338.987 415.212 341.338 413.843L352.701 407.275ZM376.887 421.247C379.248 419.878 379.239 417.673 376.878 416.323L365.497 409.746C363.145 408.386 359.324 408.386 356.972 409.737L345.6 416.305C343.24 417.664 343.249 419.869 345.61 421.228L356.982 427.796C359.342 429.156 363.164 429.165 365.515 427.805L376.887 421.247ZM401.074 435.2C403.425 433.85 403.425 431.636 401.074 430.276L389.692 423.708C387.341 422.349 383.52 422.349 381.168 423.708L369.796 430.267C367.444 431.627 367.444 433.822 369.796 435.191L381.177 441.768C383.529 443.118 387.35 443.127 389.702 441.768L401.074 435.2ZM425.26 449.172C427.621 447.812 427.612 445.607 425.251 444.248L413.87 437.68C411.509 436.321 407.697 436.321 405.345 437.671L393.973 444.239C391.612 445.598 391.621 447.794 393.973 449.162L405.354 455.739C407.706 457.099 411.527 457.099 413.888 455.739L425.26 449.172ZM449.446 463.134C451.807 461.774 451.798 459.57 449.437 458.201L438.056 451.624C435.704 450.274 431.883 450.274 429.531 451.624L418.159 458.192C415.808 459.552 415.808 461.756 418.168 463.116L429.541 469.683C431.901 471.043 435.723 471.043 438.074 469.683L449.446 463.134ZM473.633 477.096C475.984 475.737 475.984 473.532 473.633 472.173L462.26 465.605C459.9 464.245 456.078 464.236 453.727 465.596L442.355 472.164C440.012 473.514 440.012 475.719 442.373 477.087L453.745 483.655C456.106 485.015 459.927 485.024 462.279 483.664L473.633 477.096ZM497.819 491.059C500.17 489.709 500.17 487.495 497.81 486.135L486.438 479.567C484.077 478.199 480.256 478.199 477.904 479.558L466.541 486.117C464.19 487.486 464.199 489.681 466.541 491.041L477.922 497.618C480.283 498.977 484.104 498.986 486.447 497.627L497.819 491.059ZM535.637 512.894C537.979 511.534 537.979 509.32 535.628 507.961L510.615 493.521C508.254 492.161 504.442 492.152 502.081 493.512L490.709 500.079C488.357 501.439 488.367 503.643 490.718 504.994L515.74 519.443C518.092 520.803 521.913 520.803 524.265 519.443L535.637 512.894ZM304.328 379.35C306.68 377.991 306.671 375.786 304.319 374.426L292.938 367.859C290.586 366.499 286.756 366.499 284.404 367.859L273.042 374.417C270.69 375.777 270.69 377.981 273.051 379.341L284.432 385.909C286.793 387.277 290.605 387.277 292.966 385.918L304.328 379.35ZM328.515 393.312C330.876 391.953 330.866 389.748 328.515 388.38L317.134 381.812C314.782 380.452 310.961 380.452 308.609 381.812L297.237 388.38C294.885 389.73 294.895 391.944 297.246 393.294L308.627 399.871C310.979 401.231 314.8 401.231 317.161 399.871L328.515 393.312ZM231.779 337.463C234.13 336.103 234.13 333.889 231.77 332.539L213.279 321.865C210.918 320.506 207.106 320.506 204.745 321.856L193.373 328.424C191.021 329.783 191.021 331.988 193.382 333.347L211.873 344.021C214.225 345.381 218.046 345.381 220.398 344.021L231.779 337.463ZM255.965 351.425C258.317 350.056 258.317 347.861 255.956 346.501L244.575 339.934C242.214 338.574 238.402 338.565 236.041 339.934L224.678 346.492C222.327 347.852 222.327 350.056 224.678 351.416L236.059 357.984C238.411 359.343 242.241 359.343 244.593 357.984L255.965 351.425ZM280.142 365.388C282.494 364.028 282.494 361.823 280.142 360.464L268.752 353.896C266.4 352.537 262.579 352.527 260.227 353.896L248.855 360.455C246.504 361.814 246.504 364.019 248.864 365.378L260.246 371.946C262.597 373.306 266.419 373.315 268.77 371.946L280.142 365.388Z" fill="#FF6A6A"/>
<path opacity="0.2" d="M257.522 546.321C253.995 548.37 248.263 548.36 244.726 546.321L147.154 489.984C143.618 487.945 143.618 484.638 147.154 482.599L209.131 446.811C212.668 444.772 218.4 444.781 221.927 446.82L319.499 503.148C323.045 505.196 323.045 508.503 319.517 510.542L257.522 546.321Z" fill="black"/>
<path opacity="0.2" d="M147.146 485.06L209.132 449.272C212.669 447.233 218.401 447.242 221.928 449.272L319.5 505.609C320.722 506.316 321.493 507.17 321.87 508.08C322.586 506.362 321.824 504.488 319.5 503.147L221.928 446.81C218.391 444.771 212.669 444.762 209.132 446.801L147.155 482.589C144.84 483.93 144.069 485.804 144.785 487.513C145.162 486.622 145.934 485.768 147.146 485.06Z" fill="black"/>
<path d="M567.694 523.449C567.685 524.386 567.032 525.516 566.224 525.984L545.932 537.696C545.124 538.165 544.463 537.788 544.463 536.86C544.463 535.914 545.124 534.775 545.932 534.307L566.206 522.613C567.023 522.145 567.694 522.521 567.694 523.449ZM574.004 518.112C573.196 518.581 572.535 519.72 572.535 520.657C572.525 521.593 573.187 521.97 573.995 521.502C574.804 521.042 575.465 519.894 575.456 518.966C575.465 518.02 574.804 517.653 574.004 518.112ZM579.36 515.026C578.551 515.494 577.899 516.624 577.899 517.561C577.899 518.498 578.542 518.874 579.369 518.406C580.168 517.947 580.829 516.808 580.829 515.88C580.811 514.943 580.168 514.557 579.36 515.026ZM423.338 606.792C423.338 607.72 422.668 608.859 421.869 609.327L401.586 621.039C400.778 621.508 400.117 621.131 400.107 620.203C400.117 619.266 400.778 618.127 401.586 617.659L421.859 605.956C422.668 605.488 423.338 605.855 423.338 606.792Z" fill="#FF6A6A"/>
<path opacity="0.3" d="M295.123 55.6628V48.2773L527.249 182.299V189.684L295.123 55.6628ZM522.5 432.511C514.646 464.809 494.722 479.864 446.625 507.633L314.322 583.297L84.8599 450.81L83.5371 448.522L167.826 399.856C208.474 376.386 244.702 333.36 268.025 285.584L522.5 432.511Z" fill="black"/>
<path d="M527.257 189.676L295.122 55.6641L295.131 179.526C295.131 213.605 284.98 250.845 268.023 285.576L522.498 432.504C526.228 417.163 527.248 397.956 527.248 371.62L527.257 189.676Z" fill="#FF6A6A"/>
<path d="M373.248 527.059C444.19 486.099 501.886 386.24 501.868 304.44L501.886 134.438L272.415 1.95996H269.769V171.962C269.769 252.917 212.661 351.756 142.463 392.293L58.1738 440.96L59.4966 443.247L288.968 575.734L373.248 527.059Z" fill="white"/>
<path d="M288.959 576.867C288.766 576.867 288.564 576.812 288.39 576.711L58.9186 444.224C58.744 444.123 58.5971 443.976 58.5052 443.81L57.1825 441.523C57.0263 441.257 56.9896 440.953 57.0722 440.66C57.1549 440.366 57.3386 440.118 57.605 439.971L141.894 391.304C211.771 350.951 268.631 252.561 268.631 171.965V1.9535C268.631 1.65036 268.751 1.35642 268.962 1.14514C269.173 0.933869 269.467 0.814453 269.77 0.814453H272.416C272.618 0.814453 272.811 0.869568 272.985 0.970612L502.456 133.458C502.805 133.66 503.026 134.037 503.026 134.45L503.008 304.452C503.026 386.61 445.073 486.919 373.809 528.063L373.239 527.071L373.809 528.063L289.52 576.729C289.354 576.821 289.161 576.867 288.959 576.867ZM60.324 442.405L288.959 574.414L372.679 526.079C443.309 485.303 500.748 385.884 500.729 304.443L500.748 135.102L272.103 3.10172H270.9V171.956C270.9 253.278 213.525 352.558 143.024 393.27L59.7269 441.367L60.324 442.405Z" fill="#E40303"/>
<path d="M382.093 166.912V96.7781C382.084 95.0603 380.706 92.8741 379.227 92.0198C360.047 80.9509 342.181 65.289 332.563 51.1245C331.59 49.7007 330.23 48.9107 329.257 49.223C319.648 52.2819 301.791 47.3124 282.455 36.1516C281.729 35.6647 281.04 35.6096 280.544 35.8944C280.048 36.1883 279.727 36.813 279.727 37.6856V107.81C279.727 140.337 327.759 193.248 329.808 195.489C330.157 195.866 330.533 196.178 330.91 196.398C331.287 196.619 331.663 196.738 332.003 196.757C333.335 196.839 354.077 197.942 368.443 189.775C368.443 189.775 368.434 189.785 368.425 189.785C376.187 185.385 382.093 178.302 382.093 166.912Z" fill="#FF6A6A"/>
<path d="M283.888 206.899C284.044 205.971 284.209 205.043 284.356 204.115L374.277 255.96C374.185 256.925 374.093 257.88 373.973 258.854L283.888 206.899ZM393.769 211.969V215.028L459.062 252.653V249.594L393.769 211.969ZM363.75 222.643L286.855 178.312C286.818 179.304 286.782 180.306 286.736 181.307L363.759 225.702L363.75 222.643ZM352.277 202.021L286.984 164.396V167.455L352.277 205.08V202.021ZM393.769 225.959V229.027L447.589 260.029V256.971L393.769 225.959ZM375.223 201.277L286.984 150.406V153.465L375.223 204.336V201.277ZM327.622 377.443C328.118 376.708 328.614 375.982 329.11 375.238L237.04 322.126C236.553 322.87 236.039 323.586 235.552 324.33L327.622 377.443ZM312.603 351.915C313.062 351.153 313.512 350.39 313.962 349.637L244.766 309.734C244.306 310.496 243.865 311.259 243.406 312.012L312.603 351.915ZM286.947 449.258L342.374 481.233C343.164 480.673 343.945 480.104 344.726 479.525L289.161 447.466C288.426 448.082 287.682 448.66 286.947 449.258ZM304.804 310.634L258.618 284.014C258.232 284.813 257.837 285.603 257.451 286.402L303.638 313.013C304.023 312.223 304.428 311.433 304.804 310.634ZM299.329 438.602C298.64 439.236 297.951 439.851 297.263 440.467L376.261 486.047C376.977 485.45 377.685 484.834 378.401 484.228L299.329 438.602ZM209.198 358.538L266.27 391.46C266.885 390.808 267.482 390.128 268.098 389.458L210.971 356.508C210.383 357.188 209.795 357.859 209.198 358.538ZM228.773 334.076C228.259 334.793 227.744 335.528 227.23 336.244L307.688 382.66C308.221 381.944 308.772 381.246 309.305 380.529L228.773 334.076ZM382.424 422.701L336.707 396.347C336.192 397.064 335.678 397.789 335.145 398.497L380.817 424.823C381.35 424.116 381.901 423.418 382.424 422.701ZM344.992 384.396C344.505 385.14 344 385.866 343.504 386.601L412.242 426.247C412.728 425.512 413.225 424.786 413.721 424.042L344.992 384.396ZM352.736 372.023C352.286 372.785 351.836 373.539 351.376 374.292L443.106 427.212C443.565 426.458 444.015 425.696 444.465 424.933L352.736 372.023ZM220.083 345.559C219.523 346.257 218.963 346.946 218.402 347.653L310.187 400.6C310.757 399.911 311.326 399.222 311.896 398.524L220.083 345.559ZM316.975 420.726L408.191 473.361C408.815 472.7 409.422 472.029 410.037 471.368L318.794 418.724C318.206 419.404 317.591 420.056 316.975 420.726ZM309.223 428.994C308.589 429.646 307.964 430.316 307.321 430.959L375.269 470.155C375.93 469.531 376.582 468.869 377.244 468.226L309.223 428.994ZM286.001 191.136C285.9 192.1 285.808 193.056 285.698 194.02L329.174 219.061C329.22 218.041 329.211 217.049 329.238 216.039L286.001 191.136ZM231.979 483.787L229.333 485.321L317.572 536.257L320.227 534.732L231.979 483.787ZM355.528 326.296C355.877 325.478 356.226 324.661 356.566 323.834L264.644 270.814C264.295 271.631 263.955 272.449 263.606 273.266L355.528 326.296ZM201.307 480.076L113.059 429.131L110.414 430.665L198.662 481.61L201.307 480.076ZM244.104 476.787L241.449 478.322L306.752 516.011L309.397 514.486L244.104 476.787ZM256.22 469.797L253.575 471.322L330.359 515.634L333.014 514.109L256.22 469.797ZM393.769 197.97V201.029L436.116 225.408V222.349L393.769 197.97ZM273.683 521.853L219.863 490.787L217.217 492.321L271.037 523.387L273.683 521.853ZM295.986 548.722L207.747 497.777L205.092 499.311L293.34 550.256L295.986 548.722ZM166.245 473.82L100.952 436.131L98.3066 437.656L163.609 475.354L166.245 473.82ZM327.952 407.802C327.392 408.5 326.832 409.198 326.271 409.887L406.234 456.018C406.813 455.329 407.401 454.659 407.97 453.961L327.952 407.802ZM265.553 464.295L353.902 515.285L356.557 513.751L268.143 462.724C267.289 463.266 266.417 463.771 265.553 464.295ZM393.769 114.002V117.061L470.535 161.3V158.241L393.769 114.002ZM393.769 127.992V131.051L459.062 168.658V165.599L393.769 127.992ZM393.769 141.992V145.05L482.008 195.912L482.017 192.853L393.769 141.992ZM349.025 259.047C349.19 258.119 349.365 257.2 349.512 256.282L281.885 217.288C281.693 218.197 281.5 219.097 281.298 220.007L349.025 259.047ZM393.769 183.971V187.03L482.008 237.901V234.842L393.769 183.971ZM393.778 155.991V159.05L470.544 203.289V200.221L393.778 155.991ZM353.893 292.777C354.16 291.904 354.408 291.032 354.665 290.159L274.702 244.046C274.427 244.9 274.16 245.764 273.875 246.627L353.893 292.777ZM393.769 103.062L482.008 153.915V150.856L393.769 100.003V103.062ZM338.783 297.113L270.027 257.476C269.714 258.312 269.384 259.138 269.062 259.974L337.891 299.657C338.195 298.812 338.479 297.958 338.783 297.113ZM364.916 110.181V111.715C363.649 110.98 362.62 110.649 361.839 110.714C361.058 110.787 360.305 111.329 359.588 112.349C359.102 113.038 358.358 114.903 357.329 117.934L343.807 155.219L342.374 154.402L331.324 112.248L320.337 141.688L319.051 140.935L304.639 86.1509C303.564 82.0723 302.884 79.6289 302.59 78.8297C302.113 77.507 301.47 76.3588 300.643 75.3759C299.816 74.393 298.705 73.4928 297.29 72.6844V71.1504L315.258 81.5212V83.046L314.403 82.55C313.136 81.8151 312.18 81.5947 311.51 81.8611C310.839 82.1366 310.509 82.7429 310.509 83.6799C310.509 84.6444 311.032 87.1613 312.079 91.2214L321.633 128.139L329.679 106.093L328.246 100.563L327.107 96.145C326.602 94.4824 326.051 92.9484 325.426 91.5429C325.114 90.8448 324.728 90.1834 324.287 89.5588C323.69 88.7229 323.093 88.0248 322.496 87.4552C322.046 87.0327 321.32 86.5367 320.347 85.9671V84.4423L339.233 95.3551V96.8799L337.947 96.1358C336.605 95.3734 335.632 95.1346 335.016 95.4285C334.392 95.7317 334.079 96.4482 334.079 97.578C334.079 98.9835 334.612 101.739 335.687 105.845L344.992 141.624L354.215 116.133C355.262 113.332 355.785 111.265 355.785 109.951C355.785 109.318 355.611 108.629 355.262 107.885C354.922 107.131 354.49 106.497 353.967 105.974C353.048 105.064 351.882 104.192 350.421 103.347V101.822L364.916 110.181ZM393.163 252.929C390.719 284.271 380.725 317.459 365.403 348.673L457.087 401.556C472.629 369.414 482.008 335.225 482.008 304.443V304.167L393.163 252.929ZM252.555 450.488C262.889 444.518 272.92 437.233 282.519 428.902L191.745 376.524C178.894 388.604 165.225 399.02 151.061 407.196L134.646 416.675L222.903 467.62L252.555 450.488Z" fill="#FF6A6A"/>
<path d="M624.656 428.857C624.656 432.642 622.001 434.167 618.722 432.275L550.838 393.079C547.559 391.186 544.904 386.584 544.913 382.809L544.904 271.348C544.913 267.573 547.568 266.039 550.838 267.931L618.722 307.136C622.001 309.019 624.656 313.612 624.646 317.397L624.656 428.857Z" fill="white"/>
<path d="M621.376 434.229C620.366 434.229 619.263 433.907 618.152 433.264L550.269 394.068C546.622 391.965 543.765 387.014 543.765 382.806L543.756 271.355C543.756 269.104 544.583 267.396 546.071 266.532C547.559 265.678 549.46 265.825 551.408 266.946L619.291 306.151C622.947 308.254 625.804 313.196 625.785 317.403L625.795 428.855C625.795 431.106 624.977 432.823 623.489 433.678C622.855 434.045 622.139 434.229 621.376 434.229ZM548.183 268.268C547.816 268.268 547.485 268.351 547.21 268.507C546.466 268.939 546.043 269.968 546.043 271.355L546.052 382.806C546.052 386.159 548.505 390.412 551.408 392.084L619.291 431.28C620.494 431.969 621.606 432.125 622.35 431.693C623.094 431.262 623.516 430.224 623.516 428.846L623.507 317.394C623.516 314.041 621.064 309.797 618.152 308.126L550.269 268.921C549.515 268.489 548.799 268.268 548.183 268.268Z" fill="#E40303"/>
<path d="M613.108 400.923C613.108 401.832 612.465 402.2 611.684 401.74L557.892 370.683C557.102 370.233 556.468 369.131 556.459 368.221C556.459 367.321 557.102 366.954 557.892 367.413L611.684 398.47C612.465 398.92 613.099 400.023 613.108 400.923ZM603.206 408.345C603.206 409.254 602.572 409.622 601.782 409.172L557.883 383.819C557.093 383.369 556.459 382.266 556.459 381.357C556.45 380.457 557.093 380.089 557.883 380.539L601.791 405.892C602.572 406.333 603.206 407.445 603.206 408.345ZM593.322 396.073C593.322 395.172 592.688 394.07 591.907 393.62L557.892 373.971C557.102 373.521 556.468 373.889 556.468 374.789C556.468 375.698 557.102 376.801 557.892 377.251L591.907 396.899C592.688 397.34 593.322 396.982 593.322 396.073ZM613.099 377.949C613.099 378.858 612.465 379.217 611.675 378.767L557.874 347.709C557.093 347.25 556.459 346.157 556.459 345.247C556.459 344.338 557.093 343.971 557.883 344.421L611.675 375.478C612.465 375.937 613.099 377.04 613.099 377.949ZM603.215 385.371C603.215 386.281 602.581 386.648 601.8 386.189L557.883 360.836C557.102 360.386 556.468 359.283 556.468 358.374C556.468 357.465 557.102 357.097 557.892 357.556L601.791 382.909C602.572 383.359 603.206 384.462 603.215 385.371ZM593.322 373.099C593.322 372.189 592.688 371.078 591.907 370.637L557.892 350.989C557.102 350.538 556.468 350.915 556.468 351.806C556.477 352.725 557.102 353.818 557.892 354.277L591.907 373.907C592.688 374.376 593.322 373.999 593.322 373.099ZM584.779 304.977C574.803 299.236 566.729 303.884 566.72 315.375C566.72 326.876 574.803 340.875 584.788 346.634C594.755 352.394 602.838 347.728 602.838 336.227L584.788 325.81L584.779 304.977Z" fill="#FF0000"/>
<path d="M588.73 302.707V323.531L606.781 333.957C606.79 322.447 598.706 308.457 588.73 302.707Z" fill="#FF6A6A"/>
<path d="M261.926 48.4613L248.101 56.4438C247.596 56.7377 247.274 57.3623 247.283 58.235V128.36C247.283 160.887 295.316 213.797 297.365 216.038C297.714 216.415 298.099 216.727 298.467 216.948C298.843 217.168 299.22 217.288 299.56 217.306C300.892 217.389 321.633 218.491 336 210.325L336.009 210.334L350.009 202.25C357.67 197.841 363.484 190.787 363.484 179.479V109.345C363.475 107.627 362.088 105.45 360.609 104.587C341.429 93.5269 323.563 77.8559 313.945 63.6914C312.971 62.2584 311.612 61.4776 310.638 61.7899C301.039 64.8488 283.172 59.8793 263.845 48.7185C263.12 48.2133 262.431 48.1673 261.926 48.4613Z" fill="white"/>
<path d="M360.627 104.578C341.447 93.5184 323.58 77.8473 313.963 63.6828C312.989 62.2498 311.629 61.469 310.656 61.7813C301.057 64.8402 283.19 59.8707 263.863 48.7099C263.119 48.2139 262.439 48.1679 261.934 48.4619L248.109 56.4444C248.605 56.1596 249.294 56.2055 250.02 56.7016C269.356 67.8624 287.213 72.8319 296.822 69.773C297.796 69.4699 299.155 70.2507 300.129 71.6745C309.737 85.8298 327.613 101.501 346.793 112.57C348.272 113.424 349.659 115.61 349.659 117.328V187.462C349.659 198.852 343.752 205.935 335.999 210.335C336.009 210.335 336.009 210.325 336.018 210.325L336.027 210.335L350.026 202.251C357.687 197.842 363.502 190.787 363.502 179.479V109.346C363.493 107.619 362.106 105.442 360.627 104.578Z" fill="#FF6A6A"/>
<path d="M303.159 218.528C301.046 218.528 299.714 218.455 299.503 218.436C298.97 218.409 298.428 218.234 297.896 217.922C297.436 217.655 296.977 217.279 296.536 216.81C294.469 214.551 246.143 161.337 246.143 128.351V58.2353C246.134 56.986 246.639 55.9755 247.53 55.4611L261.354 47.4787C261.373 47.4695 261.4 47.4511 261.428 47.4419C262.337 46.9551 263.44 47.0653 264.487 47.7634C283.41 58.6854 300.991 63.6549 310.306 60.6971C311.794 60.2286 313.64 61.1839 314.908 63.0486C324.434 77.0846 342.171 92.6178 361.195 103.595C363.088 104.697 364.631 107.269 364.64 109.336V179.47C364.64 189.85 359.937 197.823 350.668 203.188C350.641 203.206 350.613 203.224 350.586 203.234L336.586 211.317C336.531 211.354 336.476 211.372 336.412 211.4C325.15 217.729 310.03 218.528 303.159 218.528ZM262.438 49.4812L248.669 57.4269C248.54 57.5004 248.421 57.776 248.421 58.2169V128.342C248.421 160.446 296.169 213.026 298.199 215.249C298.465 215.543 298.759 215.781 299.035 215.938C299.255 216.066 299.457 216.14 299.623 216.149C300.504 216.204 321.283 217.352 335.438 209.315C335.484 209.287 335.539 209.26 335.594 209.241L349.364 201.286C349.391 201.268 349.419 201.249 349.447 201.231C358.008 196.307 362.353 188.977 362.353 179.451V109.318C362.343 108.068 361.223 106.231 360.047 105.542C340.748 94.4091 322.725 78.6002 313.016 64.3071C312.262 63.1956 311.344 62.7455 310.995 62.8557C301.102 66.0065 282.822 60.9635 263.293 49.6833C262.879 49.4169 262.613 49.3709 262.521 49.4352C262.484 49.4628 262.466 49.472 262.438 49.4812Z" fill="#E40303"/>
<path d="M298.476 155.192L283.246 128.848L287.444 126.432L298.467 145.511L315.02 135.976L319.227 143.242L298.476 155.192Z" fill="#FF0000"/>
<path opacity="0.3" d="M298.475 155.191L283.254 128.846L287.452 126.43L298.475 145.509L312.557 137.398C309.131 130.894 304.097 125.125 298.475 121.883C288.123 115.903 279.736 120.744 279.736 132.676C279.746 144.618 288.123 159.131 298.475 165.102C308.828 171.082 317.215 166.25 317.224 154.309C317.224 151.378 316.709 148.283 315.8 145.206L298.475 155.191Z" fill="#FF6A6A"/>
<path d="M543.443 137.188C543.443 140.825 546.006 145.262 549.166 147.09L614.661 184.908C617.821 186.727 620.375 185.257 620.375 181.61V153.263C620.375 149.616 617.812 145.179 614.652 143.351L549.166 105.542C546.006 103.714 543.434 105.193 543.443 108.849V137.188Z" fill="white"/>
<path d="M617.224 186.838C616.241 186.838 615.175 186.525 614.091 185.901L548.596 148.083C545.069 146.043 542.295 141.257 542.295 137.188V108.85C542.295 106.664 543.094 105.001 544.536 104.156C545.988 103.32 547.834 103.458 549.726 104.551L615.212 142.36C618.739 144.399 621.504 149.185 621.514 153.254V181.602C621.514 183.788 620.714 185.45 619.272 186.286C618.666 186.654 617.968 186.838 617.224 186.838ZM546.612 105.91C546.263 105.91 545.951 105.984 545.694 106.14C544.986 106.544 544.591 107.536 544.591 108.85V137.197C544.591 140.412 546.952 144.5 549.745 146.108L615.24 183.926C616.388 184.587 617.444 184.734 618.142 184.321C618.84 183.916 619.245 182.934 619.245 181.611V153.263C619.245 150.039 616.884 145.951 614.091 144.344L548.606 106.535C547.88 106.122 547.2 105.91 546.612 105.91Z" fill="#E40303"/>
<path d="M609.24 154.668C609.24 155.541 608.624 155.899 607.862 155.458L555.962 125.494C555.209 125.053 554.593 124.006 554.593 123.124C554.593 122.242 555.218 121.893 555.971 122.334L607.871 152.289C608.615 152.721 609.24 153.796 609.24 154.668ZM599.696 161.824C599.696 162.706 599.08 163.046 598.318 162.623L555.962 138.171C555.199 137.73 554.584 136.664 554.584 135.791C554.584 134.928 555.199 134.56 555.962 135.011L598.327 159.463C599.08 159.886 599.705 160.951 599.696 161.824ZM590.161 149.993C590.161 149.111 589.545 148.054 588.792 147.623L555.971 128.672C555.209 128.222 554.593 128.581 554.593 129.453C554.593 130.335 555.209 131.391 555.971 131.832L588.792 150.783C589.545 151.214 590.17 150.865 590.161 149.993Z" fill="#FF6A6A"/>
</g>
<defs>
<clipPath id="clip0">
<rect width="717" height="660.636" fill="white" transform="translate(0 0.814453)"/>
</clipPath>
</defs>
</svg>
